<?xml version="1.0" encoding="UTF-8"?>
<svg version="1.1" xmlns="http://www.w3.org/2000/svg" width="512" height="512">
<path d="M0 0 C1.07288269 0.46708374 2.14576538 0.93416748 3.25115967 1.41540527 C6.77552189 2.95493836 10.28570784 4.52438622 13.796875 6.09375 C16.29211814 7.19243633 18.79046309 8.2839716 21.2890625 9.375 C25.82273332 11.3568418 30.35330484 13.34545479 34.87999725 15.34318542 C46.24537243 20.35772403 57.66590031 25.24165324 69.09118652 30.11791992 C74.91228287 32.60395104 80.72935831 35.09935667 86.546875 37.59375 C88.88018939 38.59379419 91.21352272 39.59379421 93.546875 40.59375 C107.546875 46.59375 107.546875 46.59375 111.04611206 48.09344482 C113.38196748 49.09451118 115.71784399 50.09552834 118.05374146 51.09649658 C123.84865972 53.57978073 129.64322194 56.06388868 135.43701172 58.54980469 C146.39481251 63.25036439 157.35621159 67.94206603 168.32940674 72.60656738 C172.89232376 74.546256 177.45355898 76.48988535 182.01442337 78.43439484 C185.13076547 79.76267098 188.24805127 81.08862914 191.36767578 82.40917969 C194.80736511 83.86628655 198.2438203 85.33078298 201.6796875 86.796875 C202.69572052 87.22494446 203.71175354 87.65301392 204.75857544 88.09405518 C219.14000609 94.25587851 219.14000609 94.25587851 222.546875 101.59375 C223.29081377 107.12015229 223.29234346 111.88538477 221.046875 117.03125 C214.8102763 123.42376367 206.48470931 126.54127674 198.375 129.9375 C197.21619324 130.42907593 196.05738647 130.92065186 194.86346436 131.42712402 C191.79922037 132.72550716 188.73261577 134.01796076 185.66467285 135.30755615 C182.5763675 136.60748626 179.49152554 137.91555133 176.40625 139.22265625 C170.82480445 141.58500718 165.24223204 143.94456056 159.6529541 146.28833008 C157.48576358 147.19915482 155.32115982 148.11614833 153.15856934 149.0378418 C152.07595825 149.49650635 150.99334717 149.9551709 149.87792969 150.42773438 C148.90200867 150.84357788 147.92608765 151.25942139 146.92059326 151.68786621 C144.546875 152.59375 144.546875 152.59375 142.546875 152.59375 C142.55575745 153.89587433 142.56463989 155.19799866 142.5737915 156.5395813 C142.65487861 168.81092892 142.71484121 181.08222218 142.75412369 193.35377693 C142.77499815 199.66272269 142.8033139 205.97145216 142.84863281 212.28027344 C142.89209456 218.36866253 142.91601317 224.45684358 142.92638397 230.54537582 C142.93377466 232.86821645 142.94820688 235.1910457 142.96979523 237.51379776 C142.99883268 240.76742406 143.00283073 244.02019075 143.00097656 247.27392578 C143.01535767 248.23418167 143.02973877 249.19443756 143.04455566 250.18379211 C143.00880041 255.9823316 142.33662244 259.14024872 138.546875 263.59375 C135.46942608 266.29604324 132.00131139 268.4008159 128.546875 270.59375 C127.52078125 271.24988281 126.4946875 271.90601563 125.4375 272.58203125 C82.42841453 299.47757167 34.15835211 316.0827718 -16.765625 315.96875 C-17.68454529 315.96820618 -18.60346558 315.96766235 -19.55023193 315.96710205 C-35.16736059 315.92479755 -50.13489464 314.84737803 -65.453125 311.59375 C-66.96132813 311.28026611 -66.96132813 311.28026611 -68.5 310.96044922 C-101.09095607 303.98786487 -132.34420167 290.44777349 -160.453125 272.59375 C-161.04416016 272.22523926 -161.63519531 271.85672852 -162.24414062 271.47705078 C-174.27300286 263.95399428 -174.27300286 263.95399428 -177.453125 257.59375 C-177.54489184 256.18726537 -177.57506147 254.77650905 -177.57337952 253.36703491 C-177.57544151 252.03768166 -177.57544151 252.03768166 -177.57754517 250.68147278 C-177.57215225 249.21951729 -177.57215225 249.21951729 -177.56665039 247.72802734 C-177.56679642 246.70361038 -177.56694244 245.67919342 -177.5670929 244.62373352 C-177.56639426 241.2256969 -177.55860411 237.82771458 -177.55078125 234.4296875 C-177.5489169 232.07842031 -177.54749308 229.72715273 -177.54649353 227.37588501 C-177.54266971 221.17804905 -177.53284056 214.9802364 -177.52178955 208.78240967 C-177.51157253 202.46171382 -177.50699528 196.14101422 -177.50195312 189.8203125 C-177.49121819 177.41144807 -177.47414338 165.00260097 -177.453125 152.59375 C-179.30744141 152.01173828 -179.30744141 152.01173828 -181.19921875 151.41796875 C-187.12952536 149.44119988 -192.802854 146.93284462 -198.515625 144.40625 C-199.57201172 143.94283203 -200.62839844 143.47941406 -201.71679688 143.00195312 C-204.29714464 141.8694023 -206.87585101 140.73327397 -209.453125 139.59375 C-209.7689347 159.25035688 -209.97165518 178.9051987 -210.04640484 198.56423187 C-210.08365363 207.69638057 -210.15537779 216.8256242 -210.3137207 225.95654297 C-210.45194079 233.93245983 -210.51992644 241.90565669 -210.50983936 249.88281012 C-210.50680438 254.09276224 -210.53463839 258.29644052 -210.647192 262.50502014 C-211.27553896 287.20296538 -205.96618608 303.1188186 -191.72132301 323.32141113 C-188.57647376 327.85849845 -185.78824994 332.57397375 -183.015625 337.34375 C-182.09227256 338.88557173 -181.16683538 340.42614911 -180.23828125 341.96484375 C-179.78855957 342.71233887 -179.33883789 343.45983398 -178.87548828 344.22998047 C-178.17141846 345.40004639 -178.17141846 345.40004639 -177.453125 346.59375 C-175.28543148 350.1973004 -173.11901117 353.80161309 -170.953125 357.40625 C-170.46013916 358.22512695 -169.96715332 359.04400391 -169.45922852 359.88769531 C-168.53956693 361.41829198 -167.62390781 362.95130299 -166.71289062 364.48706055 C-165.90548942 365.83726694 -165.08253011 367.17836194 -164.24023438 368.50708008 C-160.71619873 374.21798953 -160.56296535 379.0628848 -161.453125 385.59375 C-163.75840393 390.55896615 -166.66280836 393.03172409 -171.453125 395.59375 C-174.95563289 396.1700589 -178.4097508 396.14063752 -181.953125 396.11132812 C-183.52006104 396.12184204 -183.52006104 396.12184204 -185.11865234 396.13256836 C-188.56374881 396.15014022 -192.00802051 396.13852782 -195.453125 396.125 C-197.8515641 396.12769513 -200.25000214 396.13157772 -202.6484375 396.13659668 C-207.67198095 396.14249066 -212.69523967 396.13393159 -217.71875 396.11523438 C-224.15501572 396.09244537 -230.59061422 396.10556892 -237.02685547 396.12952423 C-241.97856668 396.14398461 -246.93011995 396.139375 -251.88183594 396.12901306 C-254.25488362 396.12634647 -256.62794568 396.12961314 -259.00097656 396.13893127 C-262.31874528 396.14910031 -265.63543645 396.13358934 -268.953125 396.11132812 C-269.93200684 396.11942505 -270.91088867 396.12752197 -271.91943359 396.13586426 C-277.61350385 396.06515556 -280.95293093 395.42892225 -285.453125 391.59375 C-289.74714935 387.07372437 -290.0816791 382.99235726 -289.98876953 377.01367188 C-288.95739441 370.42866607 -285.21238281 365.12221564 -281.703125 359.59375 C-280.914296 358.30786581 -280.12802739 357.02040768 -279.34423828 355.73144531 C-277.78414253 353.17378079 -276.21095253 350.6250847 -274.62402344 348.08398438 C-272.27380768 344.31700086 -269.99374786 340.51032905 -267.7253418 336.69360352 C-266.32963809 334.34629473 -264.92259761 332.00618355 -263.51171875 329.66796875 C-259.79384828 323.50390142 -256.09304143 317.32960575 -252.390625 311.15625 C-251.12895267 309.05335757 -249.86723691 306.95049118 -248.60546875 304.84765625 C-248.06913818 303.95377197 -247.53280762 303.0598877 -246.98022461 302.13891602 C-245.453125 299.59375 -245.453125 299.59375 -243.880229 297.37325001 C-242.09510187 293.89644602 -242.08367178 291.4782444 -242.09236145 287.57658386 C-242.08851654 286.53499515 -242.08851654 286.53499515 -242.08459395 285.47236425 C-242.07966362 283.15215487 -242.09613589 280.83260031 -242.11254883 278.51245117 C-242.11339527 276.84671036 -242.11291963 275.18096843 -242.11122131 273.51522827 C-242.11036059 268.99697526 -242.12799892 264.47896118 -242.14894319 259.96076369 C-242.16769702 255.23755209 -242.16945941 250.51433501 -242.17301941 245.79109192 C-242.18234367 236.84867386 -242.20696263 227.90636584 -242.23706788 218.96399623 C-242.2706 208.78271103 -242.28709491 198.60142057 -242.30215418 188.42009389 C-242.33351183 167.47791785 -242.38627978 146.53584086 -242.453125 125.59375 C-243.145271 125.2639917 -243.83741699 124.9342334 -244.55053711 124.59448242 C-245.45553955 124.15467041 -246.36054199 123.7148584 -247.29296875 123.26171875 C-248.19136475 122.82883545 -249.08976074 122.39595215 -250.01538086 121.94995117 C-253.6952979 119.90268636 -255.6041053 117.2917894 -257.453125 113.59375 C-257.95125629 108.13880412 -258.16429527 103.22351519 -255.953125 98.15625 C-250.10522412 92.1621516 -242.44778325 89.09453478 -234.828125 85.91796875 C-233.27703537 85.26131729 -233.27703537 85.26131729 -231.6946106 84.59140015 C-229.45703241 83.6450297 -227.21814304 82.70175461 -224.97808838 81.76126099 C-220.76084998 79.99058751 -216.54851344 78.20845392 -212.33632469 76.42580891 C-211.41164863 76.03450684 -211.41164863 76.03450684 -210.46829224 75.63529968 C-209.53772192 75.24149896 -209.53772192 75.24149896 -208.5883522 74.83974266 C-206.68182551 74.03335804 -204.77491509 73.22788747 -202.8678894 72.42268372 C-190.90693949 67.37146283 -178.97067606 62.26325602 -167.03955078 57.14199829 C-163.54881147 55.64366775 -160.05766963 54.14627891 -156.56640625 52.64916992 C-151.87259605 50.6363597 -147.17891719 48.62324375 -142.48535156 46.60986328 C-136.63890322 44.10211245 -130.79198813 41.59545264 -124.94473267 39.08958435 C-122.61000323 38.08899329 -120.27534757 37.08823009 -117.94076538 36.08729553 C-112.14568329 33.60300732 -106.34934083 31.12174658 -100.55029297 28.64672852 C-89.61800948 23.97704601 -78.70109274 19.27750618 -67.82531738 14.4777832 C-63.32031472 12.48990799 -58.80909404 10.51632337 -54.29645538 8.54585266 C-51.22037507 7.20133777 -48.14988544 5.84647208 -45.08496094 4.4765625 C-41.70045278 2.96439548 -38.30505859 1.47968482 -34.90625 0 C-33.92118469 -0.4487146 -32.93611938 -0.8974292 -31.92120361 -1.35974121 C-20.33569291 -6.32973872 -11.26109928 -5.12962909 0 0 Z M-22.93212891 31.41601562 C-24.34570679 32.02193291 -24.34570679 32.02193291 -25.7878418 32.64009094 C-27.34305542 33.31324593 -27.34305542 33.31324593 -28.9296875 34 C-30.01789795 34.46758224 -31.1061084 34.93516449 -32.22729492 35.41691589 C-35.21945093 36.70330354 -38.2102204 37.99285378 -41.20044708 39.28371811 C-44.34912976 40.64206256 -47.49956329 41.99633268 -50.64990234 43.35083008 C-54.58349801 45.04236716 -58.51692992 46.73428063 -62.44961548 48.42793274 C-71.48805418 52.32033072 -80.53113727 56.20173441 -89.578125 60.07421875 C-90.18712521 60.33491779 -90.79612541 60.59561684 -91.42358017 60.86421585 C-94.45177462 62.16051317 -97.48000208 63.45673335 -100.50823975 64.75292969 C-120.51156127 73.31664545 -140.50420609 81.90395915 -160.453125 90.59375 C-160.453125 90.92375 -160.453125 91.25375 -160.453125 91.59375 C-159.69074965 91.59521656 -158.92837429 91.59668312 -158.14289665 91.59819412 C-139.58929709 91.63525202 -121.03588596 91.6942532 -102.48243523 91.77765274 C-93.51009701 91.81745556 -84.53784666 91.84984172 -75.56542969 91.86474609 C-67.74470787 91.87775619 -59.92417928 91.90470434 -52.10356629 91.94836307 C-47.96288643 91.97099245 -43.82244503 91.9866598 -39.68169785 91.98563385 C-35.78277266 91.9848881 -31.88437489 92.00280416 -27.98558617 92.03491783 C-26.55617999 92.04342343 -25.12671471 92.04516222 -23.69729424 92.03955269 C-10.2780743 91.99391322 -10.2780743 91.99391322 -5.453125 96.59375 C-1.39682102 101.81634857 -1.67914956 107.24715142 -2.453125 113.59375 C-4.6371344 118.20443652 -6.94285647 120.33979263 -11.453125 122.59375 C-14.39535236 122.97851086 -14.39535236 122.97851086 -17.71101379 122.99247742 C-18.97159607 123.00501556 -20.23217834 123.01755371 -21.53096008 123.0304718 C-22.92013576 123.02929785 -24.30931122 123.02783874 -25.69848633 123.02612305 C-27.16719385 123.03514302 -28.63589383 123.04547083 -30.10458374 123.05700684 C-34.08558557 123.08457549 -38.06644454 123.09386114 -42.04752946 123.09986091 C-46.21026659 123.10924494 -50.37289704 123.13544836 -54.53556824 123.15986633 C-62.41543329 123.20353423 -70.29527764 123.2320794 -78.17522687 123.25518972 C-87.14742211 123.28223984 -96.11951005 123.32615146 -105.09162867 123.37147844 C-123.54540413 123.46432886 -141.99920797 123.53600778 -160.453125 123.59375 C-157.6824735 125.72216917 -155.15464458 127.30533637 -151.93066406 128.66479492 C-150.57737503 129.24034119 -150.57737503 129.24034119 -149.19674683 129.82751465 C-148.21400787 130.238927 -147.23126892 130.65033936 -146.21875 131.07421875 C-145.17776154 131.51536011 -144.13677307 131.95650146 -143.0642395 132.41101074 C-140.80122939 133.36929961 -138.53715569 134.32507977 -136.27215576 135.27865601 C-132.04368776 137.058879 -127.81905336 138.84806937 -123.59465981 140.63793468 C-122.66969483 141.02982967 -122.66969483 141.02982967 -121.7260437 141.42964172 C-121.10481503 141.69286036 -120.48358635 141.95607899 -119.84353256 142.22727394 C-117.92856114 143.03834491 -116.01328407 143.84869023 -114.09793091 144.65885925 C-100.32175151 150.48735865 -86.57426211 156.38232553 -72.828125 162.28125 C-70.58238421 163.24444875 -68.33661662 164.20758501 -66.09082031 165.1706543 C-65.00345581 165.63752151 -63.91609131 166.10438873 -62.79577637 166.58540344 C-60.64215822 167.50794011 -58.48698553 168.42685704 -56.3302002 169.34196472 C-51.12717338 171.55514363 -45.95082764 173.8079781 -40.82079887 176.18500423 C-38.29033662 177.35416984 -35.75022684 178.5014535 -33.20903397 179.64707375 C-31.41560013 180.46617025 -29.63626573 181.31591938 -27.85751343 182.16642761 C-21.05650675 185.35752885 -21.05650675 185.35752885 -13.84350586 184.70654297 C-12.36438962 184.03578266 -10.90113266 183.32926211 -9.453125 182.59375 C-7.69812177 181.86579429 -5.94001314 181.14529597 -4.17944336 180.4309082 C-2.21568866 179.58916408 -0.25361986 178.74347938 1.70703125 177.89453125 C2.78415878 177.43169235 3.86128632 176.96885345 4.97105408 176.49198914 C8.51860936 174.96675109 12.0639638 173.43646453 15.609375 171.90625 C18.12008943 170.82534994 20.63131462 169.74563928 23.14257812 168.66601562 C27.70133659 166.70578521 32.2596021 164.74441726 36.81722069 162.78153801 C48.24117695 157.86166558 59.67437311 152.96340613 71.10821533 148.06655884 C76.85506543 145.60513129 82.60135865 143.14240453 88.34765625 140.6796875 C89.49236389 140.18912369 90.63707153 139.69855988 91.81646729 139.19313049 C99.32989289 135.97307693 106.84271081 132.75160908 114.35519409 129.52935791 C118.92541692 127.56910757 123.49580783 125.60924927 128.0662365 123.64947891 C131.19200567 122.30913264 134.31767551 120.96855573 137.44311523 119.62744141 C140.88762533 118.14952174 144.33245036 116.67233848 147.77734375 115.1953125 C148.79853806 114.75692047 149.81973236 114.31852844 150.87187195 113.86685181 C152.28530632 113.26107803 152.28530632 113.26107803 153.72729492 112.64306641 C154.54211838 112.29353912 155.35694183 111.94401184 156.19645691 111.58389282 C158.63499008 110.55663043 161.08718298 109.56913305 163.546875 108.59375 C163.546875 107.93375 163.546875 107.27375 163.546875 106.59375 C162.99471313 106.35889893 162.44255127 106.12404785 161.87365723 105.88208008 C129.32409615 92.0367798 96.79497589 78.14493294 64.28768921 64.20062256 C55.54667472 60.45108879 46.80482582 56.7035062 38.0625 52.95703125 C37.10436464 52.54642676 37.10436464 52.54642676 36.12687302 52.12752724 C32.95615397 50.76874052 29.78542275 49.40998221 26.61468506 48.05123901 C21.89631361 46.02928332 17.17799265 44.00720986 12.45980835 41.9848175 C10.32233827 41.06888307 8.18467078 40.15340918 6.04678345 39.2384491 C1.67128074 37.36536989 -2.70247916 35.4890725 -7.06542969 33.58691406 C-7.73013275 33.29817413 -8.39483582 33.0094342 -9.0796814 32.71194458 C-10.7501263 31.98536816 -12.41885964 31.25485994 -14.08740234 30.52392578 C-17.77144819 29.07540001 -19.39869037 29.89349785 -22.93212891 31.41601562 Z M-145.453125 166.59375 C-145.84831586 176.3287184 -146.14968123 186.06176084 -146.33393192 195.80313683 C-146.42240943 200.32787026 -146.54216603 204.84709286 -146.7355957 209.36865234 C-148.4575032 227.87500558 -148.4575032 227.87500558 -143.85858154 245.16784668 C-140.01591677 248.8732692 -135.77113216 250.57189533 -130.67338562 251.91590881 C-126.95063827 253.05245623 -123.77205591 255.10033584 -120.453125 257.09375 C-83.58828815 276.84485056 -40.18149866 286.83474623 1.546875 282.59375 C2.37815918 282.50996094 3.20944336 282.42617188 4.06591797 282.33984375 C24.95856316 280.08589836 45.12687884 274.5554217 64.546875 266.59375 C65.73047607 266.10914307 65.73047607 266.10914307 66.93798828 265.61474609 C82.0722076 259.31669267 96.89581005 251.69445997 110.546875 242.59375 C110.83359861 240.10949117 110.9255523 237.87514108 110.88745117 235.39013672 C110.88810829 234.2777916 110.88810829 234.2777916 110.88877869 233.14297485 C110.88668479 230.68619669 110.86332625 228.23009678 110.83984375 225.7734375 C110.83424991 224.07236097 110.82997881 222.37127962 110.82698059 220.67019653 C110.81551504 216.1885651 110.78603335 211.70722441 110.75286865 207.22570801 C110.72220448 202.65441827 110.70848309 198.08308165 110.69335938 193.51171875 C110.66116513 184.53893461 110.60994829 175.56636646 110.546875 166.59375 C94.71654909 173.14700514 78.93952277 179.81698075 63.19787598 186.58032227 C60.1943096 187.86951098 57.18958662 189.15594557 54.18402863 190.44048309 C43.09416382 195.18015797 32.00734937 199.92382305 20.98739624 204.82458496 C17.15268505 206.52949145 13.31161915 208.21980184 9.47015381 209.90942383 C7.71057785 210.68895788 5.9544645 211.47636302 4.20220947 212.2722168 C1.78893879 213.36804318 -0.63489069 214.43640085 -3.0625 215.5 C-4.08088455 215.97626831 -4.08088455 215.97626831 -5.11984253 216.4621582 C-12.98183262 219.83618297 -21.08592746 219.76144729 -29.06738281 216.77148438 C-31.02336548 215.9324021 -32.96936646 215.06977513 -34.90625 214.1875 C-35.98121735 213.71950989 -37.05618469 213.25151978 -38.16372681 212.76934814 C-41.68599127 211.23074176 -45.19410771 209.66230265 -48.703125 208.09375 C-51.16468884 207.00973988 -53.62933157 205.93282881 -56.09423828 204.85644531 C-60.59143754 202.89041539 -65.0854936 200.91751569 -69.57580757 198.93581009 C-81.89235006 193.50193908 -94.26875085 188.20881166 -106.64733887 182.91821289 C-110.26694845 181.37072313 -113.88410604 179.81755337 -117.50097656 178.26367188 C-119.73241188 177.3059663 -121.9638567 176.34828285 -124.1953125 175.390625 C-125.19092194 174.96243469 -126.18653137 174.53424438 -127.21231079 174.09307861 C-133.25776984 171.5021953 -139.33419337 169.00605419 -145.453125 166.59375 Z M-226.453125 332.59375 C-227.84445085 334.65936179 -229.10007744 336.70826093 -230.33203125 338.8671875 C-230.70416245 339.50612946 -231.07629364 340.14507141 -231.45970154 340.80337524 C-232.65201787 342.85452653 -233.83380595 344.91153607 -235.015625 346.96875 C-235.81638989 348.34934565 -236.61781388 349.72955924 -237.41992188 351.109375 C-241.0667195 357.28093031 -241.0667195 357.28093031 -244.453125 363.59375 C-231.913125 363.59375 -219.373125 363.59375 -206.453125 363.59375 C-210.413125 356.66375 -210.413125 356.66375 -214.453125 349.59375 C-215.88785156 347.07621094 -215.88785156 347.07621094 -217.3515625 344.5078125 C-218.17640997 343.0777364 -219.00190385 341.6480329 -219.828125 340.21875 C-220.25222656 339.47109375 -220.67632812 338.7234375 -221.11328125 337.953125 C-222.17017265 336.13273793 -223.30429921 334.3575606 -224.453125 332.59375 C-225.113125 332.59375 -225.773125 332.59375 -226.453125 332.59375 Z " fill="#000000" transform="translate(289.453125,4.40625)"/>
<path d="M0 0 C16.47471353 8.98620738 27.08793711 23.52622393 32.625 41.25 C36.25037885 58.54755924 34.52301527 76.02401613 25.578125 91.2734375 C19.37886983 98.93571689 12.17565303 102.63793931 3.1875 106.375 C0.76948791 107.41484572 -1.64714985 108.45789227 -4.0625 109.50390625 C-4.67326889 109.76693542 -5.28403778 110.0299646 -5.91331482 110.30096436 C-16.22412812 114.75723234 -26.28675207 119.75394392 -36.375 124.6875 C-37.26268066 125.11772461 -38.15036133 125.54794922 -39.06494141 125.99121094 C-58.02869271 135.18771498 -76.29845516 145.30062105 -93.375 157.6875 C-94.11959473 158.22632813 -94.86418945 158.76515625 -95.63134766 159.3203125 C-107.02162255 167.58870347 -118.2359721 176.08468064 -129.375 184.6875 C-130.11105469 185.2546875 -130.84710938 185.821875 -131.60546875 186.40625 C-140.36386068 193.15970884 -149.0442951 199.99432507 -157.60644531 206.99511719 C-162.49851167 210.99148755 -167.44633871 214.90987625 -172.42749023 218.79443359 C-176.06528396 221.63748999 -179.63780969 224.54685487 -183.1875 227.5 C-197.48252111 239.19592636 -209.15418217 240.97884553 -227.375 239.6875 C-244.41306763 237.53361651 -259.48576121 226.44556943 -270.09765625 213.43359375 C-284.65121138 194.62679663 -289.83390637 172.66888333 -286.94140625 149.1640625 C-283.26191372 132.11498532 -272.5881185 117.5067781 -258.375 107.6875 C-251.3890009 103.42288772 -243.82819919 101.96461796 -235.931427 100.22579956 C-187.18600389 89.43393132 -136.52397577 77.10239539 -97.375 44.6875 C-96.8274707 44.23761719 -96.27994141 43.78773438 -95.71582031 43.32421875 C-81.70812548 31.78553601 -68.77258166 19.23308653 -56.07104492 6.28759766 C-54.38374928 4.57018444 -52.69034239 2.85898777 -50.99609375 1.1484375 C-50.48880234 0.62768646 -49.98151093 0.10693542 -49.45884705 -0.42959595 C-37.34878112 -12.62521249 -13.90047248 -6.42870243 0 0 Z M-41.9375 38.6875 C-43.03075186 39.83957066 -44.126438 40.98933648 -45.22460938 42.13671875 C-46.82593993 43.80986684 -48.42608924 45.48381014 -50.01774597 47.16616821 C-53.92384012 51.28138993 -58.01824937 55.05131366 -62.375 58.6875 C-63.64977114 59.80167906 -64.92189399 60.91889508 -66.19140625 62.0390625 C-67.43994171 63.13039422 -68.68863893 64.22154091 -69.9375 65.3125 C-70.55818359 65.8590625 -71.17886719 66.405625 -71.81835938 66.96875 C-75.8448452 70.47880438 -79.98273899 73.64626908 -84.375 76.6875 C-82.84353557 80.05515902 -80.85984689 82.80918403 -78.625 85.75 C-74.64744064 91.13567344 -71.41619798 96.73182062 -68.375 102.6875 C-63.9877546 101.35823013 -60.24024877 99.62011587 -56.25 97.375 C-48.84341863 93.31416686 -41.22585551 89.73376154 -33.5625 86.1875 C-32.95647949 85.90611176 -32.35045898 85.62472351 -31.72607422 85.33480835 C-25.73167701 82.55384992 -19.72959743 79.80903073 -13.63671875 77.25 C-12.79923096 76.89486328 -11.96174316 76.53972656 -11.09887695 76.17382812 C-9.58186475 75.53681229 -8.05851842 74.91458473 -6.52807617 74.31054688 C-3.56272501 73.0653233 -1.68130771 72.1719323 0.0625 69.4140625 C2.28342167 58.64876164 1.16987159 47.71577622 -4.84765625 38.41015625 C-8.97378085 33.17202644 -14.02649011 29.73625735 -20.375 27.6875 C-20.99656982 27.43339355 -21.61813965 27.17928711 -22.25854492 26.91748047 C-31.09378112 24.41718782 -36.54985515 32.85041741 -41.9375 38.6875 Z M-126 101.3125 C-136.24613919 106.07296705 -146.75808105 109.62503297 -157.5 113.0625 C-158.30141418 113.32057434 -159.10282837 113.57864868 -159.92852783 113.84454346 C-168.69105894 116.6618477 -177.459328 119.38818223 -186.375 121.6875 C-185.570625 122.71875 -184.76625 123.75 -183.9375 124.8125 C-174.00770008 138.14613204 -166.73653339 151.52392462 -162.375 167.6875 C-161.90771484 167.33703613 -161.44042969 166.98657227 -160.95898438 166.62548828 C-157.23307292 163.83105469 -153.50716146 161.03662109 -149.78125 158.2421875 C-148.9869458 157.64639893 -148.1926416 157.05061035 -147.37426758 156.43676758 C-145.65819156 155.14983629 -143.94186977 153.86323269 -142.2253418 152.5769043 C-138.18251871 149.54671879 -134.14169108 146.51417276 -130.11328125 143.46484375 C-122.50227071 137.71268336 -114.81555991 132.1048448 -106.95629883 126.69458008 C-103.44616541 124.25606305 -100.27832999 121.86021112 -97.375 118.6875 C-98.3989899 116.44865819 -99.44284514 114.22313449 -100.5 112 C-100.78359375 111.37416016 -101.0671875 110.74832031 -101.359375 110.10351562 C-104.16949271 104.26946691 -107.74750016 100.8997189 -113.7109375 98.1484375 C-118.74934809 97.5146076 -121.55205376 99.09076924 -126 101.3125 Z M-248.375 143.6875 C-253.95901895 153.09064072 -256.09268115 161.89413526 -253.69140625 172.7890625 C-248.98530675 187.90325757 -240.66677163 197.74993944 -227.125 205.5625 C-221.2729539 207.31811383 -216.3904169 208.15676393 -210.375 206.6875 C-207.57824299 205.13295196 -205.18011871 203.26141756 -202.75 201.1875 C-201.86235962 200.43134399 -201.86235962 200.43134399 -200.95678711 199.65991211 C-195.82743876 194.88764674 -193.70415404 189.97904045 -193 182.9375 C-193.76044735 166.71462321 -202.17232128 152.30835573 -213.75 141.375 C-218.57057826 137.25365238 -223.58209996 134.35125751 -229.875 133.25 C-237.85642747 134.64674981 -243.42868155 137.06780018 -248.375 143.6875 Z " fill="#000000" transform="translate(478.375,272.3125)"/>
</svg>
