<?xml version="1.0" encoding="UTF-8"?>
<svg version="1.1" xmlns="http://www.w3.org/2000/svg" width="512" height="512">
<path d="M0 0 C1.18219087 0.79957308 2.36905596 1.59232275 3.5625 2.375 C4.366875 2.91125 5.17125 3.4475 6 4 C6.46148437 3.55269531 6.92296875 3.10539062 7.3984375 2.64453125 C19.23076833 -8.32258962 31.76958122 -10.70039825 47.40625 -10.375 C71.30322049 -9.22135315 96.11616842 3.38581404 112.62597656 20.47167969 C117.59782137 26.00184111 123.06807654 32.46115647 124 40 C124.58265625 40.01417969 125.1653125 40.02835938 125.765625 40.04296875 C136.85662257 40.68819974 146.22191303 45.40365115 155 52 C155.59167969 52.42667969 156.18335938 52.85335937 156.79296875 53.29296875 C175.32955286 67.75744285 184.96284945 94.41211259 188.11621094 116.90576172 C190.74716876 138.83206492 188.59425454 162.37461208 178.19848633 182.12939453 C176.45853904 185.4664552 176.45853904 185.4664552 176.12890625 189.14453125 C177.17575093 191.37435736 178.40072961 193.3753419 179.75 195.4375 C183.36767735 201.33361837 185.79702956 207.45759346 188 214 C188.24878906 214.73605469 188.49757813 215.47210938 188.75390625 216.23046875 C192.75397262 230.69224718 189.95023055 245.5982518 183.25 258.6875 C180.0325134 264.24938638 176.23070716 269.17522769 172 274 C171.37222656 274.72316406 170.74445313 275.44632812 170.09765625 276.19140625 C164.13493921 282.61748371 156.78541809 287.62282635 148 289 C148.41572266 290.41152344 148.41572266 290.41152344 148.83984375 291.8515625 C149.20207031 293.09679687 149.56429688 294.34203125 149.9375 295.625 C150.29714844 296.85476563 150.65679687 298.08453125 151.02734375 299.3515625 C154.54458479 312.54474776 154.09697406 326.15995631 147.3125 338.25 C139.25705182 350.51936877 126.96181059 358.10790443 113.04296875 362.390625 C107.70401619 363.45978623 102.41442689 363.31438608 97 363 C96.85304688 363.61746094 96.70609375 364.23492187 96.5546875 364.87109375 C94.7942942 371.51809603 92.24161012 376.59699663 88 382 C87.52046875 382.61746094 87.0409375 383.23492187 86.546875 383.87109375 C77.47663597 394.15527891 61.74993057 399.05850551 48.45214844 400.22314453 C33.85386818 401.07200552 21.46889477 399.58420487 9.12109375 391.171875 C6.82035123 389.67760759 6.82035123 389.67760759 3 390 C1.0611667 391.17109164 1.0611667 391.17109164 -0.875 392.75 C-13.58715704 401.44453852 -29.79649167 401.73435532 -44.56640625 399.33984375 C-58.11780329 396.71332172 -71.47937849 391.33172819 -80 380 C-83.2669027 374.56669783 -85.98837578 369.29965989 -87 363 C-87.79921875 363.04640625 -88.5984375 363.0928125 -89.421875 363.140625 C-104.23516815 363.62744684 -117.09367263 358.31322035 -128.3125 348.6875 C-138.05246531 339.45772335 -142.74905937 328.89471685 -143.25 315.5 C-143.16838988 306.509285 -140.64653304 297.5503375 -138 289 C-138.70769531 288.89558594 -139.41539062 288.79117187 -140.14453125 288.68359375 C-153.81095152 285.41187891 -163.76901643 273.72339693 -170.94018555 262.33398438 C-179.81180257 247.61283927 -182.51738922 232.2903024 -178.5625 215.5 C-175.65037588 205.70180622 -170.65870859 196.48806289 -165 188 C-165.67095703 186.81470703 -165.67095703 186.81470703 -166.35546875 185.60546875 C-180.55819928 159.10783715 -182.1847697 127.64349926 -174 99 C-169.64832123 84.67997909 -162.90570328 71.30865696 -153 60 C-152.35804688 59.25234375 -151.71609375 58.5046875 -151.0546875 57.734375 C-142.75000224 48.72486406 -133.3390947 43.42611154 -121.4375 41.125 C-116.27428256 40.14068226 -116.27428256 40.14068226 -112.23046875 36.9609375 C-111.08505049 34.49337185 -111.08505049 34.49337185 -110.1640625 31.84375 C-103.7432899 16.15810418 -84.4486656 4.46362632 -69.73828125 -1.87890625 C-46.87272398 -11.3492966 -21.05466851 -15.8121406 0 0 Z M-92.234375 36.62890625 C-95.22565291 40.64595424 -97.3496402 44.58159618 -98.65234375 49.42578125 C-99.28253574 51.76383083 -99.88223432 53.85045062 -101 56 C-104.66429265 57.76167916 -107.27473803 58.01368419 -111.3125 57.9375 C-122.37016505 58.12491805 -130.70956234 63.73398797 -138.5625 71.0625 C-152.78743448 85.93176949 -159.93090051 107.72051913 -161 128 C-161.04125 128.75152344 -161.0825 129.50304687 -161.125 130.27734375 C-161.56405092 146.76919382 -158.36311173 165.13539224 -149 179 C-146.35085958 181.64914042 -139.44529081 180.4949723 -135.86401367 180.56982422 C-134.50468114 180.60638368 -133.14570361 180.66086051 -131.7878418 180.73388672 C-123.6895923 181.39535805 -123.6895923 181.39535805 -116.73583984 178.02246094 C-113.88125006 173.85185979 -113.88125006 173.85185979 -113 169 C-112.41992188 168.71382812 -111.83984375 168.42765625 -111.2421875 168.1328125 C-109.85495274 167.43194477 -108.48122062 166.70262437 -107.1328125 165.9296875 C-99.58798083 161.96644908 -91.26855761 161.4654 -83.08984375 163.84765625 C-76.18556954 166.91969379 -72.06550567 171.43703881 -68.97265625 178.26953125 C-65.9318504 186.49512126 -66.47111675 194.00370072 -70 202 C-74.3920715 208.77401504 -79.89664847 212.50633614 -87.5625 214.75 C-97.27815731 215.74647767 -104.28991812 213.5926997 -112.17578125 207.98828125 C-114.87073417 205.05095569 -116.35534961 201.60444015 -118 198 C-122.30469108 197.77647397 -126.60626533 197.61376719 -130.91503906 197.50561523 C-132.37820277 197.46051772 -133.84096439 197.39921356 -135.30273438 197.32104492 C-143.78930523 196.59695498 -143.78930523 196.59695498 -151.234375 199.84570312 C-152.81283579 202.17257205 -153.9410394 204.39986867 -155 207 C-155.53109375 208.00289062 -156.0621875 209.00578125 -156.609375 210.0390625 C-161.33882503 220.76130879 -164.72739602 231.58094504 -160.4375 243.125 C-154.70141541 255.49969998 -146.90508301 266.72055875 -133.984375 272.0859375 C-129.63214581 273.4189501 -125.27566072 273.95057304 -120.75 274.34765625 C-118 275 -118 275 -116.125 276.68359375 C-114.60835952 279.80639863 -114.54509709 281.53860237 -115 285 C-116.0887307 287.87777614 -117.46202719 290.58189337 -118.875 293.3125 C-123.83754949 302.94826306 -126.92119127 312.74397713 -123.9375 323.5 C-120.53794492 332.64417362 -113.43521302 337.71565921 -105 342 C-104.3296875 342.34160156 -103.659375 342.68320312 -102.96875 343.03515625 C-97.48071201 345.45304184 -91.92224076 345.51844532 -86 345 C-85.34 344.67 -84.68 344.34 -84 344 C-81.94140625 343.83203125 -81.94140625 343.83203125 -79.5625 343.8125 C-78.78003906 343.79832031 -77.99757813 343.78414063 -77.19140625 343.76953125 C-75 344 -75 344 -72 346 C-71.41804071 348.56885062 -70.98484847 351.02576881 -70.625 353.625 C-69.13591186 362.66990601 -66.31971399 368.85378579 -59.01171875 374.6875 C-55.25516989 377.1383746 -51.25120085 378.62694134 -47 380 C-45.97132813 380.3403125 -45.97132813 380.3403125 -44.921875 380.6875 C-33.9660627 383.69825758 -21.08849172 383.37246734 -11 378 C-8.08681885 376.06365936 -5.59664489 374.19328978 -4 371 C-3.90676161 369.25144541 -3.87808416 367.49929842 -3.87974548 365.7482605 C-3.87837082 364.63484283 -3.87699615 363.52142517 -3.87557983 362.37426758 C-3.87917511 361.14716064 -3.88277039 359.92005371 -3.88647461 358.65576172 C-3.88625557 356.72411667 -3.88625557 356.72411667 -3.8860321 354.75344849 C-3.88574451 351.21647577 -3.89163517 347.67953678 -3.89860606 344.14257193 C-3.90484585 340.44833133 -3.9054439 336.75409002 -3.90663147 333.05984497 C-3.90974294 326.06170896 -3.91795385 319.06358852 -3.92798096 312.06545937 C-3.93914781 304.09942402 -3.94465399 296.13338794 -3.94967639 288.16734672 C-3.96013661 271.77822058 -3.97847981 255.38911591 -4 239 C-17.86 239 -31.72 239 -46 239 C-46.165 245.166875 -46.33 251.33375 -46.5 257.6875 C-46.60924805 260.59502075 -46.60924805 260.59502075 -46.72070312 263.5612793 C-46.74407971 265.10721411 -46.76446276 266.65319834 -46.78125 268.19921875 C-46.8426416 269.39158142 -46.8426416 269.39158142 -46.90527344 270.60803223 C-46.90826585 272.99410556 -46.82767942 274.75891143 -46 277 C-43.56497102 279.19849318 -40.91307438 280.53688838 -38 282 C-32.23417116 287.25380543 -29.72213954 292.82470752 -29.04296875 300.5390625 C-28.89636635 308.93538191 -31.30973648 314.88403098 -37 321 C-42.25837538 326.11999708 -48.12340479 328.14047138 -55.375 328.4375 C-62.32542341 328.18755393 -68.08680043 326.61553596 -73.33203125 321.90625 C-79.25837673 315.49939002 -81.84762987 309.72665287 -82 301 C-81.38359015 292.15109409 -77.86532281 286.49719683 -71.375 280.625 C-69.2928732 279.20038692 -67.26226218 278.09772216 -65 277 C-64.99191315 276.4097554 -64.98382629 275.8195108 -64.97549438 275.21138 C-64.88937567 269.06298432 -64.78986873 262.91490831 -64.68261719 256.7668457 C-64.64435595 254.47295504 -64.60949811 252.17900497 -64.578125 249.88500977 C-64.53241294 246.5858844 -64.47442778 243.28716704 -64.4140625 239.98828125 C-64.40251129 238.96414627 -64.39096008 237.94001129 -64.37905884 236.88484192 C-64.35918915 235.92422348 -64.33931946 234.96360504 -64.31884766 233.97387695 C-64.30552399 233.13226517 -64.29220032 232.29065338 -64.2784729 231.42353821 C-63.9563281 228.61992524 -63.27084309 226.51881639 -62 224 C-58.65975207 221.77316804 -57.51633856 221.7347781 -53.6105957 221.68115234 C-52.49430786 221.66109131 -51.37802002 221.64103027 -50.22790527 221.62036133 C-49.05570435 221.60900146 -47.88350342 221.5976416 -46.67578125 221.5859375 C-45.59760132 221.56829346 -44.51942139 221.55064941 -43.40856934 221.5324707 C-39.37669861 221.4693511 -35.34457667 221.4232008 -31.3125 221.375 C-17.7928125 221.189375 -17.7928125 221.189375 -4 221 C-4 198.23 -4 175.46 -4 152 C-15.95133857 151.75066057 -15.95133857 151.75066057 -27.90307617 151.52197266 C-29.40805798 151.48674716 -30.91302368 151.45082375 -32.41796875 151.4140625 C-33.57794373 151.39702271 -33.57794373 151.39702271 -34.76135254 151.37963867 C-40.11105466 151.23665839 -44.1326378 150.8673622 -48 147 C-48.24581843 144.13563176 -48.37369381 141.3609686 -48.4140625 138.4921875 C-48.43342865 137.65156769 -48.4527948 136.81094788 -48.4727478 135.94485474 C-48.53261658 133.25500697 -48.57895771 130.56511657 -48.625 127.875 C-48.6631731 126.05336656 -48.70222444 124.2317513 -48.7421875 122.41015625 C-48.83832398 117.94025148 -48.92232769 113.47026221 -49 109 C-52.08950585 108.88002082 -55.17841191 108.80685703 -58.26953125 108.7421875 C-59.14484497 108.70762451 -60.02015869 108.67306152 -60.92199707 108.63745117 C-66.05929157 108.45616982 -66.05929157 108.45616982 -70.38037109 110.92358398 C-71.74117638 113.12903759 -71.74117638 113.12903759 -72.83203125 115.60546875 C-75.07312209 120.20007973 -79.36811536 122.95831717 -84.04296875 124.80859375 C-92.77504419 127.25762845 -100.34012445 126.07889101 -108.17578125 121.81640625 C-113.81883366 118.06499853 -117.10333462 113.51159311 -119 107 C-120.09929178 98.42941538 -119.29398023 91.49095821 -115 84 C-114.70867187 83.30132812 -114.41734375 82.60265625 -114.1171875 81.8828125 C-112.71540308 79.52036463 -111.50683702 79.04528628 -109 78 C-108.38382813 77.64679688 -107.76765625 77.29359375 -107.1328125 76.9296875 C-99.58798083 72.96644908 -91.26855761 72.4654 -83.08984375 74.84765625 C-75.46015355 78.24246562 -71.60455839 83.70646068 -68 91 C-66.5773584 91.00616333 -66.5773584 91.00616333 -65.12597656 91.01245117 C-61.59917184 91.03945746 -58.0741036 91.08856376 -54.54785156 91.15258789 C-53.02322067 91.17575217 -51.49843012 91.19016 -49.97363281 91.19555664 C-47.77828678 91.20485895 -45.58544588 91.24586696 -43.390625 91.29296875 C-42.07094727 91.3086792 -40.75126953 91.32438965 -39.39160156 91.34057617 C-36 92 -36 92 -33.57617188 94.0078125 C-31.48559449 97.97654181 -31.39756275 101.1577096 -31.390625 105.58203125 C-31.37408875 106.39621017 -31.35755249 107.2103891 -31.34051514 108.04924011 C-31.29212212 110.6370708 -31.27068432 113.22431426 -31.25 115.8125 C-31.22183292 117.57229503 -31.19190445 119.33206281 -31.16015625 121.09179688 C-31.08306333 125.39479903 -31.04246709 129.69596093 -31 134 C-22.09 134 -13.18 134 -4 134 C-3.90964042 119.76141579 -3.83624985 105.52302194 -3.79275131 91.28421593 C-3.77187449 84.67260462 -3.74355434 78.06119961 -3.69824219 71.44970703 C-3.65478899 65.06954545 -3.63086361 58.68958234 -3.62049103 52.30928421 C-3.61309881 49.87480164 -3.59866366 47.44032996 -3.57707977 45.00593185 C-3.54805385 41.59665176 -3.54404381 38.18819232 -3.54589844 34.77880859 C-3.52432678 33.26829422 -3.52432678 33.26829422 -3.50231934 31.7272644 C-3.54387161 24.67068407 -4.87293906 21.50044135 -9.5703125 16.2421875 C-17.55809758 9.21775338 -25.51749757 7.29239952 -36.078125 7.62109375 C-57.2182168 9.66351298 -78.52719688 20.35797814 -92.234375 36.62890625 Z M16 20 C13.73314621 23.51342172 13.75742994 26.47636517 13.77294922 30.60449219 C13.77265717 31.25856552 13.77236511 31.91263885 13.77206421 32.58653259 C13.77345324 34.74011683 13.78899392 36.89335149 13.8046875 39.046875 C13.80841916 40.54331269 13.81126541 42.03975283 13.81326294 43.53619385 C13.8208874 47.4686359 13.84052562 51.40092947 13.8626709 55.33331299 C13.88315494 59.34849031 13.89227012 63.3636917 13.90234375 67.37890625 C13.9237727 75.25267219 13.95789424 83.12631761 14 91 C23.54436663 91.2319479 33.08776034 91.40949948 42.63433266 91.51812172 C47.06762001 91.57026349 51.49897651 91.64094293 55.93115234 91.75439453 C60.21071612 91.86325103 64.48842653 91.92287888 68.76926804 91.94877243 C70.40018276 91.96721679 72.03099851 92.00324027 73.66112137 92.05730057 C78.61044753 92.21487182 83.18679492 92.25215061 88 91 C91.08964289 88.01390949 92.4199513 84.9321809 94 81 C99.76287783 75.23712217 105.36746294 73.7880376 113.3125 73.5 C121.21038281 73.68730157 127.27517529 75.14297901 132.87109375 80.9375 C139.26812788 89.03734178 139.98022888 96.95007443 139 107 C136.8848767 114.53574161 132.66439717 119.09989077 126 123 C119.61421338 126.43850049 112.09571392 126.62259121 105.19140625 124.7734375 C96.43159493 121.68173939 93.64513949 117.06448499 88 109 C63.58 109 39.16 109 14 109 C14 169.72 14 230.44 14 293 C26.54 293 39.08 293 52 293 C53.98 289.7 55.96 286.4 58 283 C64.82790751 277.14750785 70.92697087 275.49511831 79.90234375 275.6953125 C86.8846117 276.38209295 92.14319942 278.64709248 96.9375 283.8125 C103.17743331 291.86260265 104.18384943 298.86399394 103 309 C100.93480207 315.85645713 97.1400262 321.25668423 91 325 C84.09068808 328.38389019 76.86138056 329.22262266 69.390625 327.34375 C60.49145137 324.21555563 56.16623551 319.33247102 52 311 C39.46 311 26.92 311 14 311 C13.81078835 318.68059133 13.63061746 326.35266869 13.53424835 334.03356934 C13.48686866 337.61064103 13.42366395 341.18576915 13.32104492 344.76171875 C13.22267908 348.21135943 13.16932893 351.65912606 13.14610481 355.11006165 C13.12157101 357.05589738 13.05139697 359.00098637 12.98033142 360.94567871 C12.9345082 367.7043517 12.9345082 367.7043517 15.92068481 373.56958008 C24.31536388 381.23854059 32.6887236 382.73861805 43.7890625 382.3515625 C55.74628789 381.58244897 66.60760512 377.92042309 74.875 369.0625 C79.43601073 363.49599372 80.21878024 358.38857712 80.65625 351.3671875 C81.02280237 348.84297458 81.65617328 347.15972151 83 345 C85.35270593 343.82364703 86.820752 343.86640641 89.4375 343.875 C90.21996094 343.87242187 91.00242187 343.86984375 91.80859375 343.8671875 C94 344 94 344 97 345 C107.14489556 346.34751933 115.8534573 342.57388857 123.9375 336.625 C130.47478548 331.15357629 134.15114874 325.63409909 135.25390625 317.015625 C135.84835721 306.50726612 131.20047603 296.70332244 126.171875 287.75390625 C124.82058885 284.57838381 124.65053209 282.4191185 125 279 C126.875 276.1875 126.875 276.1875 130 274 C133.3 273.67 136.6 273.34 140 273 C140 264.75 140 256.5 140 248 C137.78450439 247.98541748 135.56900879 247.97083496 133.28637695 247.95581055 C125.96206282 247.90544794 118.63796091 247.83884992 111.31385517 247.76428509 C106.87372468 247.71957916 102.433686 247.68032357 97.9934082 247.65356445 C93.70736639 247.62753361 89.42167779 247.58713292 85.13585472 247.53681374 C83.50166407 247.52014351 81.86741232 247.50863018 80.23314857 247.50238609 C77.94192196 247.49274648 75.6515993 247.4646904 73.3605957 247.43237305 C71.40534721 247.41571846 71.40534721 247.41571846 69.41059875 247.39872742 C65.77474994 246.97366639 63.85810122 246.25726254 61 244 C59.76011139 240.28033416 59.941088 236.87504547 60 233.0078125 C60.0011583 231.39973947 59.99977689 229.79166298 59.99609375 228.18359375 C59.99167235 225.65209393 60.00001435 223.12429162 60.05126953 220.59326172 C60.68401437 211.08521782 60.68401437 211.08521782 57.05053711 202.90673828 C54.7367101 201.68516576 52.4702275 200.84546969 50 200 C44.67075055 194.44501807 42.38159121 187.81591213 41.625 180.25 C41.86151841 173.08488346 44.41943795 166.19729679 49.375 161 C55.72785956 155.32586476 62.2693781 153.65065412 70.6015625 153.7890625 C78.09139843 154.44777771 83.9918459 157.40647724 89 163 C94.32654063 170.47982301 94.89914073 178.01892762 94 187 C91.87050512 193.99964012 88.00601696 198.91539948 82 203 C81.14704346 203.40653809 80.29408691 203.81307617 79.4152832 204.23193359 C76.75815085 205.76967616 76.75815085 205.76967616 76.43237305 208.54370117 C76.45855713 209.53345947 76.48474121 210.52321777 76.51171875 211.54296875 C76.52783203 212.61611328 76.54394531 213.68925781 76.56054688 214.79492188 C76.62338867 216.47424805 76.62338867 216.47424805 76.6875 218.1875 C76.72133789 219.88422852 76.72133789 219.88422852 76.75585938 221.61523438 C76.81485189 224.41147976 76.8971176 227.20508097 77 230 C77.94325134 230.00364563 78.88650269 230.00729126 79.8583374 230.01104736 C88.7458486 230.04798214 97.63301282 230.10573791 106.52025986 230.18390274 C111.08936758 230.22341898 115.65828139 230.25558699 120.22753906 230.27099609 C124.63683555 230.28613555 129.04559908 230.32053229 133.45465851 230.36830902 C135.13712177 230.38315093 136.81966112 230.39104262 138.50218964 230.39188385 C140.85848367 230.39424693 143.21329685 230.42127041 145.56933594 230.45410156 C146.61374847 230.44655602 146.61374847 230.44655602 147.67926025 230.43885803 C151.01700477 230.51085688 152.74613203 230.8060637 155.43029785 232.85656738 C157.50788394 235.69351693 157.54081522 237.58157597 157.609375 241.078125 C157.64160156 242.23828125 157.67382812 243.3984375 157.70703125 244.59375 C157.72121094 245.8003125 157.73539063 247.006875 157.75 248.25 C157.77964844 249.47203125 157.80929687 250.6940625 157.83984375 251.953125 C157.91052402 254.96881644 157.96323175 257.9837355 158 261 C166.2139248 253.14804477 171.9155632 243.32878285 172.4375 231.8125 C171.94426826 218.1727454 165.92424353 204.57635551 156.71875 194.50390625 C154.3782707 191.09425345 154.44760199 189.05990084 155 185 C156.57421875 182.21875 156.57421875 182.21875 158.6875 179.5 C171.29167916 161.52902371 172.91664048 136.5925053 169.546875 115.49145508 C166.82365289 100.48265324 160.99553918 87.25911417 152 75 C151.47535156 74.27296875 150.95070313 73.5459375 150.41015625 72.796875 C143.6686383 64.20657511 133.26476257 58.89587879 122.515625 57.5703125 C120.26263538 57.40509326 118.00704332 57.27072899 115.75 57.17578125 C113 57 113 57 110 56 C109.296875 53.62890625 109.296875 53.62890625 108.75 50.5625 C107.21191863 43.81737234 104.39573019 39.27119008 100 34 C99.49855469 33.38640625 98.99710937 32.7728125 98.48046875 32.140625 C86.58432741 19.00969431 64.85918038 8.76667806 47.328125 7.796875 C33.55016709 7.52602625 25.61178954 9.51606321 16 20 Z M-100.0625 93.5625 C-102.28536064 96.86884315 -102.28536064 96.86884315 -102.0625 100.625 C-100.88775952 104.35652858 -100.29291844 105.88915485 -97 108 C-92.90143201 108.65595335 -92.90143201 108.65595335 -89 108 C-85.75990314 105.59524336 -85.75990314 105.59524336 -84 102 C-83.93182427 98.04580795 -84.4334777 95.88377478 -86.5625 92.5625 C-89.3889428 90.75067769 -91.66478716 90.30588264 -95.0234375 90.48828125 C-97.38330524 90.94843041 -97.38330524 90.94843041 -100.0625 93.5625 Z M105 95 C103.76325749 98.63293114 103.65541797 100.24191953 105.25 103.75 C107.7248077 106.93189561 109.36468582 107.91764446 113.375 108.4375 C117.09585486 108.27801417 117.09585486 108.27801417 119.9375 105.9375 C122.23534372 103.1039354 122.23534372 103.1039354 122.625 99.5 C121.82883761 95.04149064 120.69186542 93.59216083 117 91 C111.62723352 90.13651967 108.65036823 90.92017668 105 95 Z M62.625 173.0625 C59.71387591 176.32018649 58.8226421 177.65473156 59 182 C61.24721141 186.2420814 61.24721141 186.2420814 65 189 C68.87214182 189.43023798 70.52496371 189.31669086 73.8125 187.125 C76.39266816 184.61855093 76.91717964 183.74538327 77.3125 180.1875 C76.91645896 176.14788144 76.01158942 174.70270845 73 172 C68.41166529 170.4705551 66.78546394 170.51999426 62.625 173.0625 Z M-100 182.5625 C-102.29245027 185.8595558 -102.29245027 185.8595558 -102.0625 189.625 C-100.91908284 193.25703098 -100.03198695 194.74766684 -97 197 C-94.40958352 198.16986551 -93.2712346 198.06780865 -90.5 197.375 C-87.32316924 195.62774308 -85.81922242 194.1486542 -84 191 C-83.92550077 186.75354391 -84.32022405 184.779743 -87.125 181.5625 C-92.26212374 178.77058492 -95.5063991 178.7242159 -100 182.5625 Z M-63 297 C-64.42662219 299.85324437 -64.31033868 301.83454549 -64 305 C-61.94541925 308.69824535 -60.6568506 309.7810498 -56.625 311.125 C-52.85700295 311.29251176 -52.85700295 311.29251176 -49.625 308.9375 C-46.71387591 305.67981351 -45.8226421 304.34526844 -46 300 C-48.24721141 295.7579186 -48.24721141 295.7579186 -52 293 C-57.11519005 292.43164555 -59.32841583 293.43331824 -63 297 Z M70 296 C68.07136161 298.54229606 67.99097709 299.78345018 68.125 303 C69.14913546 306.51132158 70.05451898 307.85059493 73 310 C76.62563666 311.15711808 78.26262402 311.3351709 81.75 309.75 C84.68826605 307.46468196 85.89010455 305.84253177 86.375 302.125 C85.89832332 298.1526943 84.9716091 296.66682868 82 294 C76.96626213 292.53563989 74.08083426 292.61873733 70 296 Z " fill="#000000" transform="translate(251,61)"/>
</svg>
