<?xml version="1.0" encoding="UTF-8"?>
<svg version="1.1" xmlns="http://www.w3.org/2000/svg" width="512" height="512">
<path d="M0 0 C0.4021875 1.70929688 0.4021875 1.70929688 0.8125 3.453125 C5.02169388 20.70621467 10.64156976 37.40499298 21 52 C21.51691406 52.75410156 22.03382813 53.50820313 22.56640625 54.28515625 C35.65182017 71.30603301 65.6314541 78.6132299 85 85 C83.46750994 90.54531084 80.79441497 95.01708416 77.8125 99.875 C77.28495117 100.74286133 76.75740234 101.61072266 76.21386719 102.50488281 C74.48403228 105.34165106 72.74319281 108.17142299 71 111 C70.12190674 112.43037598 70.12190674 112.43037598 69.22607422 113.88964844 C55.70048593 135.88576996 41.59592313 157.41079789 26 178 C25.54963379 178.598125 25.09926758 179.19625 24.63525391 179.8125 C21.7991713 183.57507255 18.91976522 187.30191899 16 191 C15.50677246 191.62471191 15.01354492 192.24942383 14.50537109 192.89306641 C7.85248075 201.28131542 0.9895761 209.37070779 -6.3515625 217.1640625 C-8.55275471 219.52109133 -10.66678071 221.91472745 -12.75 224.375 C-15.02556856 227.06228512 -17.38025319 229.07047534 -20.1875 231.1875 C-24.62667112 234.91674588 -25.68907931 239.10510018 -27.015625 244.62109375 C-28 248 -28 248 -29.96655273 251.22387695 C-33.18648724 257.61276632 -33.07527818 264.78712419 -33.51953125 271.796875 C-33.63491374 273.41748953 -33.75189075 275.03799118 -33.87031555 276.65838623 C-34.12613513 280.19835246 -34.37162137 283.73884149 -34.60992432 287.2800293 C-35.01274175 293.24116755 -35.44870243 299.19967144 -35.88818359 305.15820312 C-36.68280791 315.96894353 -37.45407347 326.78122215 -38.21704102 337.59423828 C-38.61363699 343.21437164 -39.01495963 348.83415733 -39.41737652 354.4538765 C-39.73097827 358.84269907 -40.04167615 363.23172365 -40.35154152 367.62081146 C-40.49845237 369.69559582 -40.64635846 371.77030999 -40.79532433 373.84494781 C-41.0015893 376.72227346 -41.20380663 379.59985698 -41.4050293 382.47753906 C-41.46577133 383.31277603 -41.52651337 384.148013 -41.58909607 385.00856018 C-42.72868806 396.20180044 -42.72868806 396.20180044 -39.1875 406.5 C-36.35696165 411.78016899 -35.19088638 416.42395929 -34.31835938 422.32324219 C-33.08450902 430.24783353 -31.14412019 437.98039576 -29.1875 445.75 C-28.925634 446.79876312 -28.925634 446.79876312 -28.65847778 447.86871338 C-26.74613772 455.51388401 -24.71051788 463.09072536 -22.34667969 470.61108398 C-19.78570663 478.82102781 -18.37800181 486.57991305 -17.9375 495.1875 C-17.88730713 496.13963379 -17.83711426 497.09176758 -17.78540039 498.07275391 C-17.65276953 503.06866915 -17.65276953 503.06866915 -18 505 C-28.11377883 511.74251922 -46.73459283 510.40380117 -58.53515625 511.078125 C-59.28740479 511.12124565 -60.03965332 511.1643663 -60.81469727 511.20879364 C-82.06443777 512.38380651 -103.33587046 512.30343547 -124.61132812 512.26074219 C-130.37047357 512.24929422 -136.12943526 512.25615983 -141.8885746 512.26762295 C-214.2202012 512.3898994 -214.2202012 512.3898994 -227 506 C-227.76302111 493.22646136 -224.74208191 481.95598474 -216.39453125 472.10546875 C-212.3117373 468.1128027 -207.53336485 465.47424674 -202.5 462.875 C-201.90268066 462.56224121 -201.30536133 462.24948242 -200.68994141 461.92724609 C-187.42325621 455.42796184 -172.32824096 452.43992494 -158.05541992 448.94775391 C-144.99036268 445.73918994 -132.60317675 442.04585668 -121 435 C-121.02320313 434.24976563 -121.04640625 433.49953125 -121.0703125 432.7265625 C-121.26367611 421.76008319 -120.06017095 413.96587496 -114.2421875 404.54296875 C-111.12357702 395.64806402 -113.09435435 384.65684923 -113.71850586 375.36010742 C-113.79492813 374.17137024 -113.8713504 372.98263306 -113.9500885 371.75787354 C-114.20089424 367.87345892 -114.45771908 363.98946978 -114.71484375 360.10546875 C-114.89252947 357.38557017 -115.06908946 354.66559874 -115.2457428 351.94563293 C-115.6152812 346.26605322 -115.98809335 340.586696 -116.36303711 334.9074707 C-116.79528436 328.35984847 -117.22287834 321.81193537 -117.64787763 315.26383895 C-118.05884783 308.93280988 -118.47254635 302.60196221 -118.8876667 296.27120399 C-119.06346174 293.59004996 -119.23841864 290.90884323 -119.41270256 288.22759056 C-119.65678857 284.48253926 -119.9040036 280.73770744 -120.15209961 276.99291992 C-120.22331024 275.89196487 -120.29452087 274.79100983 -120.3678894 273.6566925 C-121.08369927 261.3851548 -121.08369927 261.3851548 -125.4375 250 C-132.27707436 237.43460243 -132.98586098 223.37521848 -129.4375 209.5625 C-127.09985926 202.37425473 -123.41415989 195.99701093 -118.50268555 190.24707031 C-116.64240996 187.46527072 -116.04093094 184.99849187 -115.2734375 181.7421875 C-114.96881592 180.49010498 -114.66419434 179.23802246 -114.3503418 177.94799805 C-114.19205902 177.2845639 -114.03377625 176.62112976 -113.87069702 175.93759155 C-101.47470633 124.35796815 -78.53216664 72.87498701 -43 33 C-42.27296875 32.17242187 -42.27296875 32.17242187 -41.53125 31.328125 C-13.93950688 0 -13.93950688 0 0 0 Z M-17.625 39 C-18.27726562 39.556875 -18.92953125 40.11375 -19.6015625 40.6875 C-51.07633397 71.03451093 -71.11146365 114.71260644 -84.75 155.5 C-84.96909027 156.15301086 -85.18818054 156.80602173 -85.41390991 157.4788208 C-88.0822297 165.08184445 -88.0822297 165.08184445 -89 173 C-87.85144531 172.96519531 -86.70289063 172.93039063 -85.51953125 172.89453125 C-67.95979013 172.516882 -52.79779608 175.21123008 -39.5625 187.8125 C-35.19713477 192.45469327 -32.02832665 197.42419586 -29 203 C-28.34 203.99 -27.68 204.98 -27 206 C-20.10279807 199.36198312 -13.94888748 192.49908617 -8 185 C-7.07693984 183.86603094 -6.1523913 182.73327224 -5.2265625 181.6015625 C1.96946133 172.76920878 8.72889086 163.66924798 15.31591797 154.37548828 C16.4447617 152.78319348 17.57663387 151.19304162 18.71142578 149.60498047 C27.33393042 137.53639438 35.47561762 125.21828197 43.33544922 112.64013672 C44.53185393 110.74252443 45.74369746 108.85461353 46.96533203 106.97314453 C47.92802002 105.48790283 47.92802002 105.48790283 48.91015625 103.97265625 C49.50062744 103.069104 50.09109863 102.16555176 50.69946289 101.23461914 C52.16766924 99.14282622 52.16766924 99.14282622 52 97 C51.4423999 96.77449463 50.8847998 96.54898926 50.31030273 96.31665039 C18.06069526 83.16835126 1.18213144 67.82415484 -13 36 C-14.89515133 36 -16.26321872 37.82224321 -17.625 39 Z M-99 203 C-99.55429688 203.51433594 -100.10859375 204.02867187 -100.6796875 204.55859375 C-106.28200104 210.36994884 -109.11725113 217.975032 -109.5 226 C-109.04490536 234.9738974 -105.64008138 242.57330065 -99.37890625 248.984375 C-91.59099932 255.58299565 -83.86751591 258.04328374 -73.68359375 257.57421875 C-64.53298973 256.14777252 -57.40395594 251.65991195 -51.625 244.484375 C-46.944702 237.3289194 -44.73040242 229.50761268 -46 221 C-47.85459186 213.16462375 -51.13117714 207.48173028 -57 202 C-57.52335937 201.50628906 -58.04671875 201.01257813 -58.5859375 200.50390625 C-70.50916574 190.70359426 -88.23038077 192.78576472 -99 203 Z M-97 276 C-97.24834589 287.54508826 -96.47724777 298.99411179 -95.72265625 310.5078125 C-95.59028208 312.56711255 -95.45816056 314.62642886 -95.32627869 316.6857605 C-95.05070535 320.97395503 -94.77216405 325.26194337 -94.49145508 329.54980469 C-94.13164388 335.04954189 -93.77926192 340.54972608 -93.42903996 346.05008125 C-93.15829349 350.28979411 -92.88372139 354.52925245 -92.60796928 358.76864243 C-92.47642399 360.79799725 -92.34606339 362.82742923 -92.21690559 364.85693741 C-92.03659203 367.68109889 -91.85114877 370.50487724 -91.66430664 373.32861328 C-91.58554291 374.58622719 -91.58554291 374.58622719 -91.50518799 375.86924744 C-91.28691725 379.10104887 -91.0290732 381.91278039 -90 385 C-88.96101562 384.91621094 -87.92203125 384.83242188 -86.8515625 384.74609375 C-85.44274119 384.64278019 -84.033885 384.53994137 -82.625 384.4375 C-81.60599609 384.35338867 -81.60599609 384.35338867 -80.56640625 384.26757812 C-76.5460068 383.98577443 -72.73149898 384.06109515 -68.72021484 384.49243164 C-67.83248383 384.58633682 -66.94475281 384.680242 -66.03012085 384.7769928 C-65.02521103 384.88738136 -65.02521103 384.88738136 -64 385 C-63.08265611 372.41269975 -62.16960302 359.82509618 -61.26194 347.23709393 C-60.84028766 341.39122587 -60.41718986 335.5454701 -59.99072266 329.69995117 C-59.57877557 324.05270944 -59.1707117 318.40519901 -58.76527405 312.75748634 C-58.61036304 310.60896725 -58.45408208 308.46054646 -58.29637146 306.31223106 C-58.07474933 303.29003182 -57.85811865 300.26751131 -57.64257812 297.24487305 C-57.57712296 296.36804871 -57.51166779 295.49122437 -57.44422913 294.58782959 C-57.00911278 288.38449219 -56.93135353 282.21744621 -57 276 C-58.57587891 276.32484375 -58.57587891 276.32484375 -60.18359375 276.65625 C-73.47451055 279.3286991 -83.74722836 278.93341981 -97 276 Z M-92.7890625 411.94140625 C-97.84598445 418.44829871 -98.77267031 423.82537208 -98 432 C-96.20528933 438.698729 -91.83179901 442.53924043 -86 446 C-80.13327468 447.95557511 -73.40494296 448.00552037 -67.6875 445.5 C-62.49710457 442.52032855 -58.87529507 437.62588522 -57 432 C-56.30555161 424.95305655 -56.49044325 418.72126591 -61 413 C-67.0593449 407.4161369 -71.9345956 405.61127052 -80.1484375 405.73046875 C-85.46611676 406.23309871 -89.1662711 408.01012388 -92.7890625 411.94140625 Z M-118 459.125 C-132.22612777 466.46793616 -147.84982554 469.7474949 -163.30432129 473.51620483 C-182.07017986 478.03403695 -182.07017986 478.03403695 -199 487 C-196.21483062 488.55522109 -194.10469605 489.26865764 -190.92266846 489.40815735 C-189.74023623 489.46498452 -189.74023623 489.46498452 -188.53391647 489.52295971 C-187.68902287 489.55316865 -186.84412926 489.58337759 -185.97363281 489.61450195 C-184.64264997 489.6707938 -184.64264997 489.6707938 -183.28477859 489.72822285 C-173.99829836 490.09270657 -164.71439373 490.16396823 -155.421875 490.16796875 C-153.59572324 490.17120341 -151.76957171 490.17456887 -149.94342041 490.17805481 C-146.13496302 490.18398608 -142.32652808 490.18590143 -138.51806641 490.18530273 C-134.70844696 490.18522227 -130.89894981 490.19204738 -127.08935547 490.20581055 C-106.55924106 490.27881298 -86.0853318 490.09469079 -65.578125 489.05078125 C-64.72250725 489.0075643 -63.8668895 488.96434734 -62.98534393 488.91982079 C-60.57743088 488.79523945 -58.17002373 488.66393959 -55.76269531 488.52856445 C-55.06090904 488.49056292 -54.35912277 488.45256138 -53.63607025 488.41340828 C-49.69975469 488.17787437 -45.87684136 487.71986855 -42 487 C-42.6563126 480.94364701 -44.26028493 475.37056667 -46.0625 469.5625 C-46.34416016 468.64017578 -46.62582031 467.71785156 -46.91601562 466.76757812 C-47.60607599 464.51026202 -48.30083123 462.25450816 -49 460 C-52.36553124 461.28437235 -55.46957241 462.7692638 -58.625 464.5 C-68.89999602 469.62990939 -80.15634712 470.32511727 -91.17578125 467.05859375 C-97.31264623 464.69586174 -102.21130468 461.6776501 -107.16015625 457.35546875 C-111.14492436 454.4197691 -114.17559141 457.0414189 -118 459.125 Z " fill="#000000" transform="translate(327,0)"/>
<path d="M0 0 C3.12068856 1.79273598 4.54965052 3.24259405 6.375 6.3125 C7.22094728 9.95007329 6.96685978 12.39039015 6 16 C2.76675351 19.81357279 0.75377496 21.83136779 -4.25 22.3125 C-8.70355765 21.9413702 -10.6333821 20.89685726 -14 18 C-15.92693706 14.90014474 -16.00600905 13.16825346 -15.875 9.5 C-14.92080906 5.68323625 -13.71834365 3.8007177 -11 1 C-7.53472176 -0.73263912 -3.78892972 -0.4719774 0 0 Z " fill="#000000" transform="translate(254,215)"/>
<path d="M0 0 C3.47799969 2.57069543 4.76921191 4.2210902 6 8.375 C6 12.79561909 5.32020929 15.2296599 3 19 C-0.7703401 21.32020929 -3.20438091 22 -7.625 22 C-11.7789098 20.76921191 -13.42930457 19.47799969 -16 16 C-17.23778002 11.82249244 -17.12368284 9.46381066 -16 5.25 C-12.20834522 -0.91143902 -6.72373368 -1.99221739 0 0 Z " fill="#000000" transform="translate(255,416)"/>
</svg>
