<?xml version="1.0" encoding="UTF-8"?>
<svg version="1.1" xmlns="http://www.w3.org/2000/svg" width="512" height="512">
<path d="M0 0 C9.92423488 7.30205172 15.30495248 16.39955844 18.1875 28.3125 C18.6501123 27.82894043 19.11272461 27.34538086 19.58935547 26.84716797 C21.73596898 24.61628987 23.89899544 22.40199625 26.0625 20.1875 C26.78953125 19.42695312 27.5165625 18.66640625 28.265625 17.8828125 C38.08851506 7.88759104 48.45226248 2.09328671 62.5625 1.875 C74.7811479 1.98368089 84.06747166 6.08464835 93.1875 14.3125 C98.22223327 20.01791854 101.34117879 25.95675631 103.1875 33.3125 C103.414375 34.116875 103.64125 34.92125 103.875 35.75 C105.30050441 47.43913613 103.35774223 58.37092943 96.703125 68.22265625 C91.1015361 75.10286871 84.60185543 81.1980425 78.1875 87.3125 C78.72004395 87.51020996 79.25258789 87.70791992 79.80126953 87.91162109 C80.50880371 88.17539551 81.21633789 88.43916992 81.9453125 88.7109375 C82.64285645 88.97052246 83.34040039 89.23010742 84.05908203 89.49755859 C95.87831334 94.02297659 104.69559182 101.78912775 110.1875 113.3125 C114.13435524 123.83744731 114.14491497 135.19780455 109.8203125 145.6015625 C107.60258569 150.13631732 105.32264585 154.3444348 102.1875 158.3125 C103.33025391 158.74949219 103.33025391 158.74949219 104.49609375 159.1953125 C115.8162952 163.68947488 126.0759332 169.02545603 131.6953125 180.3515625 C136.42869076 191.46823943 138.54770568 203.05453219 134.24334037 214.79724425 C130.56070266 223.57013827 124.92772869 230.15369326 118.2326355 236.7820282 C117.34167777 237.67993145 116.45072005 238.57783471 115.5327636 239.50294715 C113.08143388 241.97277265 110.61794407 244.43013445 108.15210009 246.88545763 C105.48627051 249.54425776 102.83201754 252.21457445 100.17619324 254.88336182 C94.97981601 260.10132244 89.77267392 265.30840867 84.56142096 270.51150855 C80.32345283 274.74316291 76.08923919 278.97853997 71.85763931 283.21656227 C71.25411282 283.82099042 70.65058632 284.42541858 70.02877114 285.04816273 C68.80250051 286.27628467 67.57623551 287.50441223 66.34997608 288.73254535 C54.86384634 300.23523411 43.36512617 311.72527096 31.86228813 323.21124772 C21.35373601 333.7051075 10.85991196 344.21355222 0.37313615 354.72916987 C-10.41141522 365.54315939 -21.20519516 376.34785438 -32.00924289 387.14236671 C-33.23275749 388.36485882 -34.45625815 389.58736487 -35.67974472 390.80988503 C-36.2816264 391.41129031 -36.88350807 392.0126956 -37.50362859 392.63232529 C-41.73028811 396.85682636 -45.95095292 401.0872593 -50.16922379 405.32013512 C-55.31608514 410.48456842 -60.47175906 415.64000683 -65.63874693 420.78430661 C-68.27134268 423.40580385 -70.89988203 426.03103686 -73.51756859 428.66742897 C-76.36343917 431.53337194 -79.22853497 434.37931721 -82.09573364 437.22392273 C-82.9088045 438.04882932 -83.72187536 438.87373591 -84.55958474 439.72363967 C-95.83877511 450.82390219 -109.7371157 457.46612581 -125.6328125 458.3515625 C-133.3514133 458.25673939 -141.29647842 457.53592026 -148.5 454.625 C-151.93451515 453.26415437 -152.54955274 453.05642138 -155.8125 454.3125 C-157.5158027 455.61156277 -157.5158027 455.61156277 -159.07714844 457.30004883 C-159.69168884 457.92772659 -160.30622925 458.55540436 -160.93939209 459.20210266 C-161.59361145 459.8843541 -162.24783081 460.56660553 -162.921875 461.26953125 C-164.3306188 462.70648841 -165.73947661 464.14333381 -167.1484375 465.58007812 C-169.35452906 467.84815782 -171.5571689 470.11948799 -173.75683594 472.39379883 C-175.88649095 474.59021494 -178.02853556 476.77397889 -180.171875 478.95703125 C-180.81799744 479.63320999 -181.46411987 480.30938873 -182.12982178 481.00605774 C-188.67259364 487.65300082 -195.51663399 491.36407222 -204.9375 491.625 C-214.18669927 491.44148414 -219.973246 488.43975076 -226.64453125 482.1171875 C-227.48004768 481.33512436 -227.48004768 481.33512436 -228.33244324 480.53726196 C-234.87361376 474.37632456 -241.25749118 468.05359041 -247.6105957 461.69970703 C-249.66274863 459.64979255 -251.72285449 457.60807956 -253.78320312 455.56640625 C-255.09163167 454.26090341 -256.39959313 452.95493223 -257.70703125 451.6484375 C-258.63017876 450.73606827 -258.63017876 450.73606827 -259.57197571 449.80526733 C-263.8125 445.54138991 -263.8125 445.54138991 -263.8125 443.3125 C-264.4725 443.3125 -265.1325 443.3125 -265.8125 443.3125 C-267.05085754 442.04548645 -267.05085754 442.04548645 -268.56958008 440.17114258 C-273.60085466 434.26056587 -279.18352391 428.92875669 -284.72730064 423.50592613 C-288.13391799 420.16877543 -291.52344759 416.8143122 -294.91601562 413.46289062 C-299.21231174 409.2204856 -303.51344101 404.98336469 -307.83325195 400.76489258 C-311.34506976 397.33456434 -314.83921148 393.88707075 -318.32245827 390.42774391 C-319.64416709 389.12137675 -320.97211803 387.82129135 -322.30658531 386.52795982 C-331.0847338 378.01281267 -337.4128597 371.00583358 -338.3125 358.25 C-337.67979451 346.11355837 -330.31173405 338.2535598 -321.67163086 330.42089844 C-320.55599358 329.42364154 -319.44018655 328.42657451 -318.32421875 327.4296875 C-316.62358845 325.87544972 -314.92715164 324.31679307 -313.23266602 322.75585938 C-312.06997542 321.70342533 -310.89112201 320.66859707 -309.69750977 319.65136719 C-305.66565507 316.19439149 -302.35300481 313.01850166 -299.8125 308.3125 C-299.56908139 303.97256531 -301.01853848 300.06034584 -302.47583008 296.02929688 C-304.13188699 291.42439998 -304.43835232 287.46464301 -304.3125 282.625 C-304.29823975 281.82449219 -304.28397949 281.02398437 -304.26928711 280.19921875 C-303.85450753 268.43885877 -299.23430001 258.98769394 -294.17553711 248.59936523 C-284.22825926 227.82971264 -282.36523828 205.65818585 -282.43237495 182.90334892 C-282.44165455 179.46663692 -282.43107687 176.03045107 -282.41575623 172.59376526 C-282.37608945 162.83977826 -282.3744611 153.08584155 -282.37670898 143.33178711 C-282.37676022 137.32395823 -282.35754155 131.3164208 -282.32737541 125.30867195 C-282.31663026 121.94129629 -282.3286234 118.57449453 -282.34120178 115.20713806 C-282.33229397 113.12954149 -282.3222184 111.05194948 -282.31079102 108.97436523 C-282.32053452 108.05415588 -282.33027802 107.13394653 -282.34031677 106.18585205 C-282.21679424 94.86042034 -277.7429314 84.52591879 -269.9296875 76.33984375 C-260.05389536 67.21925924 -249.17937995 64.67866613 -236.0390625 65.0078125 C-225.71645443 65.56269281 -217.38746205 70.47856684 -209.8125 77.3125 C-202.51824999 85.5784293 -198.81048674 95.2786467 -198.60717773 106.28637695 C-198.58723251 107.24699539 -198.56728729 108.20761383 -198.54673767 109.19734192 C-198.52166893 110.73354439 -198.52166893 110.73354439 -198.49609375 112.30078125 C-198.47531265 113.35911667 -198.45453156 114.41745209 -198.43312073 115.50785828 C-198.36786897 118.88017441 -198.30885363 122.25256674 -198.25 125.625 C-198.2067916 127.91472134 -198.16317657 130.20443505 -198.11914062 132.49414062 C-198.01221259 138.10018045 -197.91040137 143.70629566 -197.8125 149.3125 C-197.08050227 148.57773689 -196.34850454 147.84297379 -195.59432507 147.08594513 C-177.75726891 129.18219821 -159.91149657 111.28717559 -142.05662823 93.40119171 C-133.42224193 84.75135703 -124.7906774 76.09874176 -116.16577148 67.43945312 C-108.64557821 59.8892954 -101.1200711 52.34448136 -93.58821899 44.8059535 C-89.60283774 40.81667195 -85.62011102 36.82482121 -81.64374352 32.82655334 C-77.89519342 29.05752683 -74.13953742 25.2957261 -70.37849236 21.53916931 C-69.00495931 20.16481605 -67.63396331 18.78792141 -66.26581955 17.40820312 C-47.67830869 -1.32871372 -26.09387493 -16.09570635 0 0 Z M-46.4375 21.5625 C-47.15550781 22.30757812 -47.87351562 23.05265625 -48.61328125 23.8203125 C-50.3610319 25.63797317 -52.0930675 27.46809942 -53.8125 29.3125 C-52.46677113 32.31193905 -50.97712899 34.39326179 -48.64794922 36.70410156 C-48.00743622 37.3444635 -47.36692322 37.98482544 -46.70700073 38.64459229 C-46.01736237 39.32390808 -45.327724 40.00322388 -44.6171875 40.703125 C-43.55602219 41.76004547 -43.55602219 41.76004547 -42.47341919 42.83831787 C-40.21610138 45.0844539 -37.95192367 47.32353009 -35.6875 49.5625 C-34.15449047 51.08547717 -32.62193285 52.60890939 -31.08984375 54.1328125 C-27.33595427 57.86466815 -23.57641086 61.59075351 -19.8125 65.3125 C-15.51179218 63.23305129 -12.6748076 60.54218332 -9.3125 57.1875 C-8.74402344 56.64351562 -8.17554688 56.09953125 -7.58984375 55.5390625 C-1.77091825 49.76063996 1.79051013 43.37412085 2.4375 35.125 C1.92740043 27.34598151 -0.49293856 21.73788714 -5.83984375 16.0390625 C-11.3225844 11.24030732 -17.93807327 8.87660298 -25.18017578 9.05761719 C-34.37961065 9.9483805 -40.36450733 15.04008283 -46.4375 21.5625 Z M38.1875 32.125 C32.38126506 38.11158012 26.5811928 43.94907579 20.1875 49.3125 C21.54863013 52.35831486 23.08080096 54.45089026 25.44384766 56.79589844 C26.10438141 57.45628113 26.76491516 58.11666382 27.44546509 58.79705811 C28.15697723 59.49824768 28.86848938 60.19943726 29.6015625 60.921875 C30.33120209 61.64868469 31.06084167 62.37549438 31.81259155 63.12432861 C34.1412388 65.44179198 36.47674826 67.7521995 38.8125 70.0625 C40.39368653 71.63365444 41.97442125 73.20526371 43.5546875 74.77734375 C47.4270669 78.62768653 51.30510171 82.47226117 55.1875 86.3125 C61.14564664 81.27627394 66.76478561 75.98625522 72.3125 70.5 C73.19292969 69.64857422 74.07335937 68.79714844 74.98046875 67.91992188 C81.87650514 61.09149368 88.19451129 53.81686257 88.5 43.6875 C88.41857564 36.70536129 85.81747773 31.80540712 82.0625 26.0625 C75.28780534 19.58235728 68.72386187 17.7577599 59.4609375 17.74609375 C50.05096 19.37431181 44.59234031 25.43388274 38.1875 32.125 Z M-69.60986328 44.8828125 C-70.78932229 46.06258943 -71.96326195 47.24789979 -73.1328125 48.4375 C-73.75147186 49.05898926 -74.37013123 49.68047852 -75.00753784 50.32080078 C-76.98891731 52.31340523 -78.96324349 54.31284033 -80.9375 56.3125 C-82.27688602 57.66191282 -83.61672401 59.01087718 -84.95703125 60.359375 C-88.2474611 63.67189595 -91.53158006 66.99056068 -94.8125 70.3125 C-90.69920129 75.21723901 -86.42707539 79.8344528 -81.8828125 84.33984375 C-81.24761688 84.97362442 -80.61242126 85.60740509 -79.95797729 86.26039124 C-77.95351284 88.25931406 -75.94557786 90.25470784 -73.9375 92.25 C-72.56747611 93.61500133 -71.19768226 94.9802336 -69.828125 96.34570312 C-66.49223457 99.67064211 -63.15322964 102.99242353 -59.8125 106.3125 C-55.47163471 102.67017102 -51.31480266 98.93611806 -47.31640625 94.9140625 C-46.83799789 94.4342392 -46.35958954 93.95441589 -45.86668396 93.46005249 C-44.36705121 91.95490542 -42.87096872 90.44628786 -41.375 88.9375 C-40.34724017 87.90471405 -39.31924715 86.87216009 -38.29101562 85.83984375 C-35.79548402 83.33339713 -33.30311918 80.8238292 -30.8125 78.3125 C-32.15477101 75.32814744 -33.63908283 73.23370449 -35.9453125 70.92089844 C-36.57937012 70.2805365 -37.21342773 69.64017456 -37.86669922 68.98040771 C-38.55006348 68.30109192 -39.23342773 67.62177612 -39.9375 66.921875 C-40.6402002 66.21726135 -41.34290039 65.51264771 -42.06689453 64.78668213 C-43.55060104 63.30161647 -45.03682892 61.81906619 -46.52539062 60.33886719 C-48.81093591 58.06405675 -51.08559017 55.7787464 -53.359375 53.4921875 C-54.80144219 52.05144132 -56.24412935 50.61131535 -57.6875 49.171875 C-58.71254639 48.14075592 -58.71254639 48.14075592 -59.75830078 47.08880615 C-60.3923584 46.46105286 -61.02641602 45.83329956 -61.6796875 45.18652344 C-62.23769043 44.63011169 -62.79569336 44.07369995 -63.37060547 43.50042725 C-66.23252627 41.14258926 -66.94999021 42.43883068 -69.60986328 44.8828125 Z M5.61825562 63.64123535 C5.0009256 64.26300659 4.38359558 64.88477783 3.74755859 65.52539062 C3.04698334 66.22611694 2.34640808 66.92684326 1.62460327 67.64880371 C0.86934357 68.41438599 0.11408386 69.17996826 -0.6640625 69.96875 C-1.43809418 70.74561157 -2.21212585 71.52247314 -3.00961304 72.32287598 C-5.4902884 74.81478149 -7.96393507 77.31353814 -10.4375 79.8125 C-12.11412627 81.49915239 -13.79120376 83.18535637 -15.46875 84.87109375 C-19.58859088 89.0130326 -23.70267592 93.16062314 -27.8125 97.3125 C-26.45136987 100.35831486 -24.91919904 102.45089026 -22.55615234 104.79589844 C-21.89561859 105.45628113 -21.23508484 106.11666382 -20.55453491 106.79705811 C-19.84302277 107.49824768 -19.13151062 108.19943726 -18.3984375 108.921875 C-17.66879791 109.64868469 -16.93915833 110.37549438 -16.18740845 111.12432861 C-13.8587612 113.44179198 -11.52325174 115.7521995 -9.1875 118.0625 C-7.60631347 119.63365444 -6.02557875 121.20526371 -4.4453125 122.77734375 C-0.5729331 126.62768653 3.30510171 130.47226117 7.1875 134.3125 C12.50011905 129.83601133 12.50011905 129.83601133 17.5390625 125.05859375 C18.08046875 124.51396484 18.621875 123.96933594 19.1796875 123.40820312 C19.71851563 122.86099609 20.25734375 122.31378906 20.8125 121.75 C21.3590625 121.19892578 21.905625 120.64785156 22.46875 120.08007812 C23.54465363 118.99516573 24.6196283 117.90933118 25.69360352 116.82250977 C27.84930932 114.64355236 30.01844468 112.47816087 32.1875 110.3125 C33.22534416 109.27482334 34.26309998 108.2370583 35.30078125 107.19921875 C39.74414062 102.75585938 39.74414062 102.75585938 44.1875 98.3125 C40.08422745 93.42807843 35.8335544 88.79898251 31.328125 84.28515625 C30.69767273 83.65137558 30.06722046 83.01759491 29.41766357 82.36460876 C28.09794432 81.03986655 26.77690388 79.7164393 25.45458984 78.39428711 C23.42386561 76.36135076 21.40130259 74.32051416 19.37890625 72.27929688 C18.09163459 70.9890955 16.80389124 69.69936454 15.515625 68.41015625 C14.9104303 67.79777603 14.3052356 67.18539581 13.68170166 66.55445862 C10.0714197 62.22330533 10.0714197 62.22330533 5.61825562 63.64123535 Z M-261.55859375 91.17578125 C-265.50081046 97.89351502 -266.24873392 103.81044294 -266.19726562 111.43432617 C-266.2026384 112.41613358 -266.20801117 113.39794098 -266.21354675 114.40950012 C-266.22329198 116.53192879 -266.2262788 118.65439714 -266.22319031 120.77684593 C-266.21868187 124.15654025 -266.23280374 127.53571916 -266.25158691 130.9153595 C-266.28829067 138.11023126 -266.30203785 145.3050485 -266.3125 152.5 C-266.32465595 160.80167353 -266.34669261 169.10309559 -266.39250183 177.40465736 C-266.4058615 180.69722097 -266.40193745 183.98944916 -266.39709473 187.2820282 C-266.46816315 215.05197141 -271.42946328 241.04804647 -284.625 265.6875 C-289.34975708 274.90311529 -289.83643741 284.99772621 -287.09375 294.91015625 C-283.46875858 305.01950734 -275.98493083 312.44168867 -268.47265625 319.84765625 C-267.32222084 320.99384682 -267.32222084 320.99384682 -266.14854431 322.16319275 C-263.72873711 324.57191995 -261.30202636 326.97354923 -258.875 329.375 C-257.22023899 331.01971546 -255.56593775 332.66489362 -253.91210938 334.31054688 C-249.8842006 338.31655714 -245.85061971 342.31678409 -241.8125 346.3125 C-240.84796678 343.15641905 -240.78994793 340.59879075 -241.06616211 337.31958008 C-241.14632065 336.32787308 -241.22647919 335.33616608 -241.30906677 334.31440735 C-241.40172318 333.24772324 -241.49437958 332.18103912 -241.58984375 331.08203125 C-241.68004288 329.97703781 -241.770242 328.87204437 -241.86317444 327.73356628 C-242.15259317 324.19683411 -242.45067292 320.66090632 -242.75 317.125 C-243.0447634 313.60687957 -243.33757211 310.08862842 -243.62611389 306.56999207 C-243.80587835 304.38144935 -243.98931007 302.19320373 -244.17698669 300.00532532 C-245.52412517 283.71451698 -245.52412517 283.71451698 -243.68334961 280.08789062 C-243.13686768 279.55357422 -242.59038574 279.01925781 -242.02734375 278.46875 C-241.38780762 277.8190625 -240.74827148 277.169375 -240.08935547 276.5 C-239.33799316 275.778125 -238.58663086 275.05625 -237.8125 274.3125 C-236.4621248 272.93789946 -235.11182276 271.56322583 -233.76309204 270.18701172 C-231.3208086 267.70830397 -228.84609601 265.26242089 -226.375 262.8125 C-225.3467702 261.78929861 -224.31877374 260.76586267 -223.29101562 259.7421875 C-220.80085662 257.26292001 -218.30757167 254.78682462 -215.8125 252.3125 C-216.02471191 251.55976807 -216.23692383 250.80703613 -216.45556641 250.03149414 C-216.73062012 249.04270264 -217.00567383 248.05391113 -217.2890625 247.03515625 C-217.56314941 246.05554932 -217.83723633 245.07594238 -218.11962891 244.06665039 C-220.04509821 236.41294382 -218.2313366 229.30749591 -214.8515625 222.328125 C-211.28884607 216.61767171 -205.21724002 212.7896994 -198.890625 210.66796875 C-189.10614051 208.99430693 -181.04236647 210.1262279 -172.84765625 215.6328125 C-167.42424151 219.82936597 -164.94562904 224.91311289 -162.8125 231.3125 C-161.96548898 241.21280912 -163.32057351 248.70047528 -168.5625 257.125 C-174.84569989 263.23366656 -181.44941991 265.80654905 -190.125 266.625 C-193.49927859 266.33904419 -196.29747744 265.70478581 -199.54296875 264.79296875 C-200.53063232 264.51735107 -201.5182959 264.2417334 -202.53588867 263.95776367 C-203.28717041 263.74482666 -204.03845215 263.53188965 -204.8125 263.3125 C-220.85823489 274.36471588 -220.85823489 274.36471588 -230.41680908 290.64385986 C-231.9781857 302.00018299 -229.54255415 313.7936996 -227.65185547 324.98291016 C-226.40879118 332.50632299 -225.87099405 340.07983876 -225.30041504 347.67800903 C-225.02394454 351.23917807 -224.6946522 354.79514969 -224.36328125 358.3515625 C-224.25669189 359.50865723 -224.15010254 360.66575195 -224.0402832 361.85791016 C-223.92753052 363.07293213 -223.92753052 363.07293213 -223.8125 364.3125 C-220.71565572 362.92856266 -218.55023031 361.32256511 -216.12232971 358.96377563 C-215.40570663 358.27157928 -214.68908356 357.57938293 -213.95074463 356.86621094 C-213.17495056 356.10679199 -212.39915649 355.34737305 -211.59985352 354.56494141 C-210.7751506 353.76462494 -209.95044769 352.96430847 -209.10075378 352.13973999 C-201.52090775 344.7687884 -193.98836758 337.34874829 -186.47181797 329.91326332 C-180.91873924 324.42103225 -175.34232408 318.95504611 -169.73193032 313.52136099 C-165.30764264 309.23176808 -160.92503042 304.90165892 -156.55540276 300.55643845 C-154.69297798 298.71669689 -152.81765789 296.88991573 -150.9295063 295.07658768 C-148.28982374 292.53632722 -145.70114351 289.95293224 -143.11938477 287.35400391 C-142.32942108 286.61482727 -141.5394574 285.87565063 -140.72555542 285.11407471 C-138.56840272 282.8841477 -137.05133362 281.16139683 -135.8125 278.3125 C-136.05946926 274.98755916 -136.79152067 272.26372871 -137.90547085 269.12622643 C-140.10554011 262.30131566 -138.03485708 255.52985188 -134.9765625 249.28125 C-131.57354356 243.52580856 -126.12359926 239.88921393 -120.1875 237.0625 C-112.07338525 235.25936339 -103.25763632 235.32115436 -95.8125 239.3125 C-88.94193323 243.94846496 -84.52849801 249.11635162 -82.8125 257.3125 C-81.52149696 268.11223695 -83.36541061 275.59481364 -90 284.125 C-98.85798253 291.01454197 -106.61609049 292.46240152 -117.8125 291.3125 C-120.15256666 290.66986719 -122.48707826 290.00625978 -124.8125 289.3125 C-136.03156593 300.48490002 -147.24494054 311.66297829 -158.45152283 322.84789848 C-163.65475514 328.04080657 -168.85985134 333.23182059 -174.06933594 338.41845703 C-178.60851242 342.93773466 -183.14419372 347.46048564 -187.67566586 351.98748887 C-190.07643401 354.38564368 -192.47894732 356.78199085 -194.88565063 359.17419052 C-197.56772047 361.84184098 -200.24356611 364.51558416 -202.91796875 367.19091797 C-203.72213226 367.98789093 -204.52629578 368.78486389 -205.35482788 369.60598755 C-206.07844513 370.33235413 -206.80206238 371.0587207 -207.54760742 371.80709839 C-208.18180099 372.43944838 -208.81599457 373.07179836 -209.46940613 373.72331047 C-211.02766421 375.22030102 -211.02766421 375.22030102 -210.8125 377.3125 C-202.82333647 377.97063215 -194.83372918 378.6229782 -186.84351826 379.26825714 C-183.13201906 379.5681691 -179.42069359 379.8699559 -175.7097168 380.17626953 C-172.11796606 380.47266846 -168.52582311 380.76382643 -164.93337059 381.05158997 C-162.91886002 381.21426201 -160.90477219 381.38214277 -158.89070129 381.5501709 C-155.19923484 381.84337268 -151.50900446 382.09244729 -147.8125 382.3125 C-146.62618484 382.39148529 -145.43986969 382.47047058 -144.21760559 382.55184937 C-136.22567641 382.88907861 -136.22567641 382.88907861 -129.62916565 378.90982056 C-129.16501755 378.4162204 -128.70086945 377.92262024 -128.22265625 377.4140625 C-127.70360214 376.90507416 -127.18454803 376.39608582 -126.64976501 375.87167358 C-125.57321785 374.79954775 -124.51252934 373.71126993 -123.46801758 372.60791016 C-121.86672531 370.9288233 -120.20848205 369.32757003 -118.53320312 367.72265625 C-112.96946855 362.43351196 -112.96946855 362.43351196 -110.56274414 355.43261719 C-111.07745865 352.89239495 -111.84947095 350.7110185 -112.8125 348.3125 C-113.79327931 340.39640178 -111.64742526 332.61482383 -107.25 326 C-102.95928874 320.68769082 -96.46077803 317.60558355 -89.8125 316.3125 C-80.19919592 315.44912899 -72.19694938 317.43893762 -64.60546875 323.5 C-58.95132263 329.21573813 -56.69723071 336.06903254 -56.5 343.9375 C-56.59678634 351.88365891 -58.59018146 358.26186155 -64 364.1875 C-70.48104568 370.03423057 -78.13834311 372.47539497 -86.8125 372.3125 C-90.96619749 371.72186604 -94.83913139 370.6369562 -98.8125 369.3125 C-99.60946289 370.11993652 -100.40642578 370.92737305 -101.22753906 371.75927734 C-104.18939018 374.75736441 -107.15788467 377.74879839 -110.12841797 380.73828125 C-111.41246413 382.03237675 -112.69470846 383.32826272 -113.97509766 384.62597656 C-115.81721261 386.49238628 -117.66573936 388.35223332 -119.515625 390.2109375 C-120.0855719 390.79120697 -120.6555188 391.37147644 -121.24273682 391.96932983 C-125.21080098 395.93850351 -127.58084532 398.25912329 -133.2421875 398.39453125 C-134.72467121 398.31733826 -136.20646198 398.22620813 -137.6875 398.125 C-138.51451416 398.07674072 -139.34152832 398.02848145 -140.19360352 397.97875977 C-151.7631445 397.26013595 -163.32015825 396.28077702 -174.87255859 395.3293457 C-176.09464272 395.22956924 -176.09464272 395.22956924 -177.34141541 395.1277771 C-178.88222051 395.00171528 -180.42289034 394.87398486 -181.96339417 394.74429321 C-185.58996051 394.4482823 -189.17347592 394.24165332 -192.8125 394.3125 C-186.80170518 401.4545367 -180.34350147 408.07446026 -173.77441406 414.70068359 C-172.388435 416.10320101 -171.00783848 417.51105895 -169.6328125 418.92431641 C-158.55829768 430.30380469 -147.69357151 441.32772266 -130.76171875 441.69311523 C-114.41370506 441.65015313 -104.49685557 436.18320591 -92.99195379 424.75011641 C-92.32558057 424.0779175 -91.65920734 423.40571859 -90.97264099 422.71315002 C-90.23807885 421.98029673 -89.5035167 421.24744344 -88.7466951 420.49238247 C-86.31000637 418.05896289 -83.88049028 415.61851139 -81.45092773 413.17797852 C-79.69635779 411.4228439 -77.94134629 409.66815061 -76.18592834 407.91386414 C-72.4196553 404.14804513 -68.65644954 400.37920185 -64.89605522 396.60751534 C-59.459282 391.15442659 -54.01693619 385.70692713 -48.57325316 380.26073729 C-39.7394937 371.42261019 -30.91020157 362.5800343 -22.08374023 353.73461914 C-13.51415614 345.14665209 -4.94245542 336.56080672 3.63208008 327.9777832 C4.42606113 327.18301398 4.42606113 327.18301398 5.2360822 326.37218881 C7.89177667 323.7138841 10.5475126 321.0556208 13.20326912 318.39737809 C35.20444228 296.37550143 57.19828081 274.34631322 79.1875 252.3125 C77.76130422 249.34098523 76.36943693 247.24890987 74.02294922 244.92089844 C73.38243622 244.2805365 72.74192322 243.64017456 72.08200073 242.98040771 C71.04754318 241.96143402 71.04754318 241.96143402 69.9921875 240.921875 C69.28474396 240.21726135 68.57730042 239.51264771 67.84841919 238.78668213 C65.59110138 236.5405461 63.32692367 234.30146991 61.0625 232.0625 C59.52949047 230.53952283 57.99693285 229.01609061 56.46484375 227.4921875 C52.71095427 223.76033185 48.95141086 220.03424649 45.1875 216.3125 C42.34882545 217.59919306 40.33909322 218.92642256 38.18237305 221.16992188 C37.62466721 221.74391724 37.06696136 222.3179126 36.49235535 222.90930176 C35.90062027 223.52704468 35.30888519 224.1447876 34.69921875 224.78125 C33.42296566 226.0876692 32.14625868 227.39364511 30.86914062 228.69921875 C28.86929876 230.75478225 26.8736009 232.81395526 24.88598633 234.88134766 C22.95999725 236.88013717 21.01844587 238.86271804 19.07421875 240.84375 C18.48855637 241.46149292 17.90289398 242.07923584 17.29948425 242.71569824 C13.44923121 246.61233823 10.61671452 248.35744718 5.1875 249.3125 C2.25 248.9375 2.25 248.9375 0.1875 248.3125 C-1.06747957 244.5475613 -1.33314444 242.28241382 -0.8125 238.3125 C1.12701307 235.26469375 3.62782335 232.84596836 6.1875 230.3125 C7.159651 229.32891193 8.13095589 228.34448711 9.1015625 227.359375 C11.77666271 224.65620675 14.47637023 221.9795065 17.1875 219.3125 C13.07420129 214.40776099 8.80207539 209.7905472 4.2578125 205.28515625 C3.30501907 204.33448524 3.30501907 204.33448524 2.33297729 203.36460876 C0.32851284 201.36568594 -1.67942214 199.37029216 -3.6875 197.375 C-5.05752389 196.00999867 -6.42731774 194.6447664 -7.796875 193.27929688 C-11.13276543 189.95435789 -14.47177036 186.63257647 -17.8125 183.3125 C-23.51350985 188.04773644 -28.74536287 193.12951444 -33.95703125 198.39453125 C-34.80802902 199.24931564 -35.65902679 200.10410004 -36.53581238 200.98478699 C-39.23465137 203.69577475 -41.93021429 206.40998352 -44.625 209.125 C-48.19117032 212.71768226 -51.76058051 216.30709906 -55.33203125 219.89453125 C-56.56322441 221.13817192 -56.56322441 221.13817192 -57.81929016 222.40693665 C-58.57735458 223.16830429 -59.33541901 223.92967194 -60.11645508 224.71411133 C-60.78373123 225.3866243 -61.45100739 226.05913727 -62.13850403 226.75202942 C-64.66083309 229.10330168 -65.70773047 229.3048804 -69.25 229.5625 C-72.8125 229.3125 -72.8125 229.3125 -74.75 228.3125 C-76.48867083 225.03970785 -76.53228195 221.86596218 -75.8125 218.3125 C-74.0176803 215.38899075 -71.67177778 213.15811075 -69.203125 210.79492188 C-68.50086792 210.09149658 -67.79861084 209.38807129 -67.07507324 208.66333008 C-64.75600986 206.34982709 -62.40993763 204.06592739 -60.0625 201.78125 C-58.44650361 200.18017898 -56.832268 198.57732898 -55.21972656 196.97277832 C-50.97592392 192.75948438 -46.7086478 188.57076743 -42.43603516 184.38671875 C-38.07834063 180.11093882 -33.74327528 175.81235097 -29.40625 171.515625 C-20.89699491 163.09210424 -12.36276748 154.69437395 -3.8125 146.3125 C-8.33763045 140.95118148 -8.33763045 140.95118148 -13.15576172 135.85571289 C-13.73591034 135.2756398 -14.31605896 134.69556671 -14.91378784 134.09791565 C-15.51715973 133.49970505 -16.12053162 132.90149445 -16.7421875 132.28515625 C-17.37738312 131.65137558 -18.01257874 131.01759491 -18.66702271 130.36460876 C-20.67148716 128.36568594 -22.67942214 126.37029216 -24.6875 124.375 C-26.05752389 123.00999867 -27.42731774 121.6447664 -28.796875 120.27929688 C-32.13276543 116.95435789 -35.47177036 113.63257647 -38.8125 110.3125 C-42.25553467 111.78755963 -44.40884134 113.70512464 -46.99511719 116.39501953 C-48.21723907 117.65610031 -48.21723907 117.65610031 -49.46405029 118.94265747 C-50.33700745 119.85103363 -51.2099646 120.75940979 -52.109375 121.6953125 C-53.49610443 123.11535532 -54.88285869 124.53537485 -56.27104568 125.95399284 C-59.68949381 129.4485798 -63.09909496 132.95128054 -66.484375 136.47802734 C-68.38600809 138.45805485 -70.2979374 140.42696085 -72.22247314 142.38473511 C-74.03309616 144.2272684 -75.8280375 146.08537358 -77.60516357 147.9602356 C-84.44798338 154.86144351 -84.44798338 154.86144351 -89.30175781 154.98388672 C-92.8125 154.3125 -92.8125 154.3125 -94.8125 152.6875 C-96.19082203 149.41398517 -96.49377187 147.85511375 -95.8125 144.3125 C-91.26196821 138.07822798 -85.34775798 132.72429324 -79.875 127.3125 C-78.70614258 126.15041016 -78.70614258 126.15041016 -77.51367188 124.96484375 C-75.6155758 123.07839243 -73.71516851 121.19433755 -71.8125 119.3125 C-73.15822887 116.31306095 -74.64787101 114.23173821 -76.97705078 111.92089844 C-77.61756378 111.2805365 -78.25807678 110.64017456 -78.91799927 109.98040771 C-79.60763763 109.30109192 -80.297276 108.62177612 -81.0078125 107.921875 C-82.06897781 106.86495453 -82.06897781 106.86495453 -83.15158081 105.78668213 C-85.40889862 103.5405461 -87.67307633 101.30146991 -89.9375 99.0625 C-91.47050953 97.53952283 -93.00306715 96.01609061 -94.53515625 94.4921875 C-98.28904573 90.76033185 -102.04858914 87.03424649 -105.8125 83.3125 C-109.06920829 84.7405958 -111.22194672 86.47813283 -113.72131348 88.9942627 C-114.86942253 90.14258324 -114.86942253 90.14258324 -116.04072571 91.31410217 C-116.87097763 92.15468674 -117.70122955 92.9952713 -118.55664062 93.86132812 C-119.43837448 94.74598251 -120.32010834 95.6306369 -121.2285614 96.542099 C-123.14329543 98.46444682 -125.05611823 100.38849716 -126.96598816 102.31565857 C-129.98636211 105.36309811 -133.01436831 108.40287613 -136.0435791 111.44152832 C-142.47248478 117.892626 -148.89291678 124.35212734 -155.3125 130.8125 C-162.24305966 137.7870958 -169.17504087 144.76024112 -176.11682844 151.72366476 C-179.12754001 154.74433945 -182.13330754 157.76982379 -185.13538361 160.7990799 C-187.44242496 163.1245451 -189.75592158 165.44357469 -192.06835938 167.76367188 C-192.8986113 168.60425644 -193.72886322 169.444841 -194.58427429 170.31089783 C-195.34968033 171.07644485 -196.11508636 171.84199188 -196.90368652 172.6307373 C-197.56586937 173.29736137 -198.22805222 173.96398544 -198.91030121 174.65081024 C-202.21499378 177.53766614 -203.99626239 178.35471919 -208.4375 178.125 C-211.8125 177.3125 -211.8125 177.3125 -213.8125 174.3125 C-214.0640564 171.28562927 -214.0640564 171.28562927 -214.06787109 167.52124023 C-214.07149155 166.834608 -214.075112 166.14797577 -214.07884216 165.4405365 C-214.08573399 163.94932318 -214.08824199 162.45808464 -214.08689499 160.966856 C-214.08592838 158.59874911 -214.09889079 156.23109452 -214.11587524 153.86305237 C-214.16208447 147.13001086 -214.18671771 140.39701294 -214.19335938 133.66381836 C-214.1984041 129.54285739 -214.22281039 125.42236351 -214.25868607 121.30156136 C-214.26842344 119.73847332 -214.27084943 118.17532049 -214.26551437 116.61221123 C-214.23257387 106.47827998 -215.08695565 98.29998199 -220.5625 89.5 C-227.49178868 82.76319157 -234.13998767 80.86838096 -243.640625 80.97265625 C-251.09863751 81.77172902 -256.79242262 85.52751277 -261.55859375 91.17578125 Z M47.1875 117.3125 C48.53322887 120.31193905 50.02287101 122.39326179 52.35205078 124.70410156 C52.99256378 125.3444635 53.63307678 125.98482544 54.29299927 126.64459229 C54.98263763 127.32390808 55.672276 128.00322388 56.3828125 128.703125 C57.44397781 129.76004547 57.44397781 129.76004547 58.52658081 130.83831787 C60.78389862 133.0844539 63.04807633 135.32353009 65.3125 137.5625 C66.84550953 139.08547717 68.37806715 140.60890939 69.91015625 142.1328125 C73.66404573 145.86466815 77.42358914 149.59075351 81.1875 153.3125 C87.23599451 150.42584397 91.59123146 145.8066696 95.1875 140.1875 C97.54524978 133.48409376 97.55132546 124.39179393 94.6875 117.875 C90.76592447 111.41756467 84.42454097 106.36299494 77.1875 104.3125 C63.96672023 102.64349376 55.76862615 107.65274067 47.1875 117.3125 Z M32.39047241 131.86901855 C31.66655304 132.59737915 30.94263367 133.32573975 30.19677734 134.07617188 C29.37607758 134.89702271 28.55537781 135.71787354 27.70980835 136.56359863 C26.82330597 137.46042358 25.93680359 138.35724854 25.0234375 139.28125 C24.11622955 140.19128784 23.20902161 141.10132568 22.27432251 142.03894043 C19.85981764 144.46108996 17.45137808 146.88918511 15.04412842 149.31854248 C12.58772281 151.79538863 10.12566197 154.26659884 7.6640625 156.73828125 C2.83297329 161.59083503 -1.99173542 166.44968971 -6.8125 171.3125 C-3.23727484 175.56424292 0.41142424 179.66399735 4.33984375 183.59765625 C4.80306534 184.06183456 5.26628693 184.52601288 5.74354553 185.0042572 C6.71281373 185.97419868 7.68331674 186.94290773 8.6550293 187.91040039 C10.12209132 189.37210195 11.58372903 190.83907452 13.04492188 192.30664062 C17.92676264 197.1915855 22.85749449 201.91654274 28.1875 206.3125 C31.45946452 204.87991228 33.61953956 203.12424684 36.12988281 200.59716797 C36.89036926 199.83653046 37.65085571 199.07589294 38.43438721 198.29220581 C39.65022491 197.06088425 39.65022491 197.06088425 40.890625 195.8046875 C41.72841492 194.96406769 42.56620483 194.12344788 43.42938232 193.25735474 C46.10348431 190.57205999 48.77054724 187.87989345 51.4375 185.1875 C53.24954062 183.36542845 55.06203518 181.54380823 56.875 179.72265625 C61.31778036 175.25782748 65.75480165 170.78733717 70.1875 166.3125 C68.92540888 162.52622664 67.07075523 161.07358969 64.1875 158.3125 C63.14882631 157.26977054 62.11358763 156.22361134 61.08129883 155.17456055 C58.04464527 152.10250684 55.0020621 149.03640398 51.95727539 145.97241211 C50.64528332 144.65027366 49.33507883 143.32635909 48.02661133 142.00073242 C46.13306231 140.08305574 44.23324188 138.17179592 42.33203125 136.26171875 C41.74557327 135.6649382 41.1591153 135.06815765 40.55488586 134.45329285 C39.13655011 133.03456345 37.66645971 131.66791417 36.1875 130.3125 C34.04322488 130.09426232 34.04322488 130.09426232 32.39047241 131.86901855 Z M67.6875 191.5625 C66.56864929 192.70144595 65.44886503 193.83947562 64.328125 194.9765625 C61.60369383 197.74475012 58.89223538 200.52507045 56.1875 203.3125 C57.53322887 206.31193905 59.02287101 208.39326179 61.35205078 210.70410156 C61.99256378 211.3444635 62.63307678 211.98482544 63.29299927 212.64459229 C63.98263763 213.32390808 64.672276 214.00322388 65.3828125 214.703125 C66.44397781 215.76004547 66.44397781 215.76004547 67.52658081 216.83831787 C69.78389862 219.0844539 72.04807633 221.32353009 74.3125 223.5625 C75.84550953 225.08547717 77.37806715 226.60890939 78.91015625 228.1328125 C82.66404573 231.86466815 86.42358914 235.59075351 90.1875 239.3125 C95.49888377 236.81224918 99.12298921 232.74901956 103.24169922 228.62890625 C104.67264928 227.20230558 106.11877918 225.79246094 107.56640625 224.3828125 C114.45511497 217.52317006 120.19333068 210.8560091 120.5 200.6875 C120.41857564 193.70536129 117.81747773 188.80540712 114.0625 183.0625 C107.28780534 176.58235728 100.72386187 174.7577599 91.4609375 174.74609375 C80.982111 176.55925585 74.74470654 184.28292013 67.6875 191.5625 Z M-201.0625 230.5625 C-203.23587417 233.97780227 -203.741562 236.26903401 -203.8125 240.3125 C-201.92282215 245.66658724 -198.87185077 248.78282461 -193.8125 251.3125 C-189.30972327 251.3567316 -185.7322214 250.87998767 -181.875 248.5 C-178.20256006 244.60498794 -177.34289599 241.82432351 -177.49609375 236.33984375 C-178.18720773 231.9115949 -180.75515702 229.16980512 -184.125 226.4375 C-191.10505874 223.51561495 -195.98002313 225.48002313 -201.0625 230.5625 Z M-121.453125 257.14453125 C-123.846706 260.96188026 -123.56673079 264.97038632 -122.8125 269.3125 C-120.7700649 272.35523417 -120.7700649 272.35523417 -117.8125 274.3125 C-117.049375 274.93125 -116.28625 275.55 -115.5 276.1875 C-111.76862865 277.7494694 -108.57993596 277.5784805 -104.8125 276.3125 C-100.64065277 272.86619142 -97.97720585 269.98700946 -97.4375 264.5 C-97.55777296 260.13810083 -98.94183767 257.64867514 -101.8125 254.3125 C-104.73922672 251.93947833 -106.49559204 251.35283374 -110.25 250.875 C-115.19249933 251.4819736 -118.1530782 253.45947899 -121.453125 257.14453125 Z M-292.86938477 325.03125 C-293.7952816 325.92348267 -293.7952816 325.92348267 -294.73988342 326.83374023 C-295.40451096 327.48673096 -296.06913849 328.13972168 -296.75390625 328.8125 C-297.43678207 329.481604 -298.1196579 330.15070801 -298.82322693 330.84008789 C-300.26943892 332.26297972 -301.71263858 333.68893864 -303.15307617 335.11767578 C-305.3539788 337.29173518 -307.57766471 339.44056421 -309.80273438 341.58984375 C-311.20461285 342.97505837 -312.60505105 344.3617324 -314.00390625 345.75 C-314.67055801 346.38679688 -315.33720978 347.02359375 -316.02406311 347.6796875 C-320.42979951 352.12794272 -321.83843593 354.99566119 -321.8125 361.3125 C-318.67846819 368.94318615 -312.38165261 374.10790777 -306.23223877 379.38517761 C-301.52036736 383.5057722 -297.11220106 387.89420454 -292.70605469 392.3371582 C-291.8334903 393.21278915 -290.9609259 394.0884201 -290.06192017 394.99058533 C-288.18060672 396.87901564 -286.30021233 398.76831088 -284.42128754 400.65911293 C-281.44874771 403.65009343 -278.47173461 406.63659503 -275.49395752 409.62236023 C-267.03286102 418.10750249 -258.57781281 426.59865689 -250.12695312 435.09399414 C-245.44713924 439.79835938 -240.76373488 444.49912047 -236.07645726 449.19604939 C-233.11630171 452.16273751 -230.16070374 455.13386945 -227.20842695 458.10839713 C-224.94342727 460.38788075 -222.67189495 462.66083917 -220.40136719 464.93481445 C-219.58675018 465.75819305 -218.77213318 466.58157166 -217.93283081 467.42990112 C-216.80601395 468.55476173 -216.80601395 468.55476173 -215.65643311 469.7023468 C-215.00681988 470.35510243 -214.35720665 471.00785807 -213.68790817 471.68039417 C-210.49141594 474.46219585 -208.45188754 475.27942823 -204.1875 475.5 C-197.9958439 474.54300287 -194.03709007 469.57171785 -189.8125 465.3125 C-189.17054688 464.69503906 -188.52859375 464.07757813 -187.8671875 463.44140625 C-184.22755004 459.90785688 -180.89877822 456.15416542 -177.58984375 452.3125 C-174.80129714 449.17461898 -171.82068762 446.23839677 -168.8125 443.3125 C-170.36874499 439.59366545 -172.64696956 437.22655308 -175.48132324 434.38970947 C-175.95939659 433.90851615 -176.43746993 433.42732282 -176.93003035 432.93154788 C-178.53131015 431.32229818 -180.13963494 429.720283 -181.74804688 428.11816406 C-182.89820701 426.96529369 -184.04794127 425.81199832 -185.19728088 424.65830994 C-188.31855438 421.5279161 -191.44612437 418.40388474 -194.57512856 415.28122044 C-197.84568089 412.01572746 -201.11135549 408.74536245 -204.37780762 405.47576904 C-209.86204686 399.98789101 -215.35049056 394.50424437 -220.84130859 389.02294922 C-227.19689806 382.67825496 -233.54523568 376.326373 -239.88987494 369.97073007 C-245.3325113 364.51903128 -250.7790186 359.07122279 -256.22880793 353.62667441 C-259.48603398 350.37257243 -262.74187929 347.11711991 -265.99424744 343.85816193 C-269.0496374 340.79701395 -272.10984129 337.74076306 -275.17390251 334.68829536 C-276.30037652 333.56447578 -277.42513372 332.43893243 -278.54808235 331.31159019 C-280.07538882 329.77885785 -281.60865719 328.25235775 -283.14367676 326.72735596 C-284.00203377 325.869753 -284.86039078 325.01215004 -285.74475861 324.12855911 C-289.02312689 321.24922874 -290.04212167 322.29075425 -292.86938477 325.03125 Z M-93.8125 334.3125 C-96.62656063 338.06458084 -97.7940644 341.24323509 -97.875 345.9375 C-96.30690881 350.91849555 -94.00500901 353.98545507 -89.4375 356.75 C-84.93086167 357.71570821 -81.25251623 356.93432519 -77.0625 355.125 C-74.07834967 352.72110113 -73.02894575 350.96183725 -71.8125 347.3125 C-71.51898708 342.41774044 -72.06171397 339.26620118 -75.125 335.375 C-81.39121118 330.56604724 -86.94295699 329.53368747 -93.8125 334.3125 Z " fill="#000000" transform="translate(356.8125,13.6875)"/>
</svg>
