<?xml version="1.0" encoding="UTF-8"?>
<svg version="1.1" xmlns="http://www.w3.org/2000/svg" width="512" height="512">
<path d="M0 0 C3.46380111 1.46330598 6.38853605 3.44089882 9.4375 5.625 C10.22576172 6.14707031 11.01402344 6.66914062 11.82617188 7.20703125 C16.26144297 10.26453728 19.19948961 12.72968011 21 18 C21 22.2362654 20.39595144 24.39968652 18.0625 27.9375 C14.34108292 30.44376048 12.04630387 30.75978048 7.62890625 30.58203125 C3.72981755 29.71878576 1.12127248 27.66336326 -1.89453125 25.1171875 C-3.97277479 23.71778094 -3.97277479 23.71778094 -6.375 24.5625 C-9.45114556 26.2470559 -12.30493269 28.12689744 -15.1875 30.125 C-20.77935943 34 -20.77935943 34 -23 34 C-22.58427734 34.98226562 -22.58427734 34.98226562 -22.16015625 35.984375 C-19.36225491 43.03389155 -18.26403957 49.43526622 -18 57 C-15.42307643 58.06073365 -12.84057676 59.09862962 -10.25 60.125 C-9.52039063 60.42792969 -8.79078125 60.73085938 -8.0390625 61.04296875 C-3.97796091 62.74049576 -3.97796091 62.74049576 0.2578125 62.40234375 C2.26203127 60.78908245 4.22201079 59.17045025 6.125 57.4375 C10.95029528 53.05831693 10.95029528 53.05831693 15.375 52.8125 C20.43209877 53.07407407 20.43209877 53.07407407 23 55 C25.65949138 58.02631778 26.26553679 60.44666199 26.125 64.375 C25.41532574 69.04187967 23.43915856 71.18745077 19.96875 74.23828125 C17.88365427 76.10411096 16.16150244 78.09914509 14.375 80.25 C9.56964646 85.72512626 9.56964646 85.72512626 6 87 C-1.85932489 86.68245152 -8.4547991 84.24301601 -15.75 81.4375 C-17.95030394 80.59545569 -20.15334591 79.76052283 -22.359375 78.93359375 C-23.32327148 78.56290771 -24.28716797 78.19222168 -25.28027344 77.81030273 C-29.94167095 76.42150755 -32.59329731 76.71782819 -36.92797852 78.80004883 C-43.08084158 81.68349271 -49.52462144 82.85163335 -56.15234375 84.19921875 C-57.50252553 84.48160955 -58.85250322 84.76497769 -60.20228577 85.04927063 C-63.72598413 85.78911535 -67.25196333 86.51740525 -70.77868652 87.24267578 C-76.44745729 88.41072784 -82.11237287 89.59736809 -87.7775898 90.78251076 C-89.75234941 91.19401044 -91.72799001 91.60103051 -93.70384216 92.00724792 C-94.89590775 92.2545314 -96.08797333 92.50181488 -97.31616211 92.7565918 C-98.36823349 92.97324997 -99.42030487 93.18990814 -100.5042572 93.41313171 C-102.98059205 93.89421213 -102.98059205 93.89421213 -105 95 C-100.26427187 99.94000808 -95.49631691 104.8472253 -90.70556641 109.73388672 C-89.08256621 111.39690521 -87.46684354 113.06706072 -85.85888672 114.74462891 C-83.53449516 117.16701093 -81.18437855 119.56177153 -78.828125 121.953125 C-77.77265472 123.0705307 -77.77265472 123.0705307 -76.69586182 124.21051025 C-71.78638177 129.12422931 -67.3283417 131.36677871 -60.64002991 133.23661804 C-51.94856452 135.74981225 -45.70899662 142.53115344 -41.37109375 150.1875 C-37.25962437 158.62128335 -36.85085714 166.11684912 -36.93359375 175.38671875 C-36.9407843 176.91878967 -36.9407843 176.91878967 -36.94812012 178.48181152 C-36.96057386 180.98794356 -36.97800773 183.49393655 -37 186 C-36.00388388 185.99585193 -36.00388388 185.99585193 -34.9876442 185.99162006 C-18.78541952 185.9251978 -2.5832383 185.87564072 13.61909103 185.84456348 C21.45460671 185.82913305 29.29003117 185.80811723 37.12548828 185.77368164 C43.95953316 185.74366156 50.79351194 185.72439725 57.62762094 185.71773452 C61.24202175 185.71384347 64.85623354 185.70478009 68.47057343 185.68280983 C72.51790035 185.65841003 76.56490433 185.65803803 80.61230469 185.65942383 C81.79410812 185.648638 82.97591156 185.63785217 84.19352722 185.6267395 C94.75656068 185.66567749 104.5599084 187.68541735 114 192.5 C115.00728149 193.00950195 115.00728149 193.00950195 116.03491211 193.52929688 C123.07863741 197.28505773 128.49399266 202.29100622 134 208 C134.99580078 208.94939453 134.99580078 208.94939453 136.01171875 209.91796875 C149.0149459 223.15496178 152.49896718 241.4250015 152.34765625 259.21484375 C151.87973206 278.94154253 144.04960041 294.44994093 130 308 C129.05060547 308.99580078 129.05060547 308.99580078 128.08203125 310.01171875 C123.99144683 314.03006327 119.30726431 316.64371483 114.25 319.25 C113.61876221 319.57967773 112.98752441 319.90935547 112.3371582 320.24902344 C103.43459119 324.61265468 95.17175314 326.37885854 85.33935547 325.32519531 C70.36042883 323.91048176 56.72636382 323.45076918 44.53222656 333.36523438 C35.75632171 340.95775354 27.99317352 349.62360773 20.31408691 358.29943848 C15.92355404 363.21439679 11.39168961 367.99881717 6.87637138 372.7988472 C3.37005832 376.52993298 -0.11097813 380.27591076 -3.52536011 384.0914917 C-15.28364327 397.12057272 -15.28364327 397.12057272 -24 400 C-16.78045719 408.65282354 -8.82557134 416.61163123 -0.91829491 424.63014603 C1.60970238 427.19392883 4.12805254 429.76578218 6.62548828 432.359375 C9.06320013 434.8905718 11.52291423 437.39837321 13.99909592 439.89192963 C15.37662078 441.29012154 16.73161234 442.71040182 18.08584595 444.13116455 C23.48267426 449.51201564 27.64910116 452.15123095 35.22836304 453.37860107 C42.91136248 455.10112378 49.06516675 461.2827552 53.5390625 467.5 C59.13459985 477.07525107 64.87807625 494.94212808 62 506 C60.4488285 509.02125469 59.78020023 510.20523169 57 512 C51.95549536 512.94045638 46.92299649 512.84501593 41.8125 512.796875 C40.30704179 512.80091962 38.80158741 512.80674512 37.29614258 512.81427002 C34.14529001 512.82310288 30.99545997 512.81030332 27.84472656 512.78222656 C23.81228758 512.74803783 19.78224431 512.76772833 15.74989319 512.80366135 C12.64243625 512.82537731 9.53554434 512.81842717 6.42807007 512.80289459 C4.94175938 512.79890142 3.45539684 512.80377142 1.96914673 512.81777191 C-9.52345542 512.9022823 -9.52345542 512.9022823 -13.03240967 510.75804138 C-14.90491339 508.67261846 -15.86081563 506.53128423 -16.56738281 503.83422852 C-16.22107629 497.71836657 -15.15093045 491.89759883 -13.75 485.9375 C-13.44255859 484.52500977 -13.44255859 484.52500977 -13.12890625 483.08398438 C-11.33232392 475.26068497 -8.81134992 468.53506687 -3.375 462.5 C-2.78460938 461.8296875 -2.19421875 461.159375 -1.5859375 460.46875 C0 459 0 459 2 459 C-3.88191729 451.86974814 -10.46590852 445.45869538 -17.03886604 438.97766495 C-19.07353307 436.96994392 -21.1035366 434.95761655 -23.13218689 432.94381714 C-28.8951386 427.22331321 -34.66074543 421.50557742 -40.44262695 415.80419922 C-43.99318674 412.30240876 -47.53369323 408.79071726 -51.06802177 405.27254868 C-52.40746171 403.94294074 -53.7505322 402.61697897 -55.09742928 401.29492569 C-66.18081947 390.41155245 -75.6752517 379.85661648 -76.375 363.5 C-75.83046986 350.77160795 -70.24011344 340.9190403 -61.28125 332.1875 C-60.77239258 331.68541016 -60.26353516 331.18332031 -59.73925781 330.66601562 C-58.49626276 329.44052755 -57.24860771 328.21976904 -56 327 C-75.59362009 324.97454786 -95.19497604 323.62824583 -114.875 322.875 C-115.95727151 322.8326002 -115.95727151 322.8326002 -117.06140709 322.78934383 C-149.89389107 321.54229595 -181.19937881 320.55246662 -207.12766647 343.63594437 C-219.43167202 355.08302085 -230.44770134 368.45750247 -240.02182007 382.25848389 C-245.29533098 389.85432545 -249.49905804 394.82904751 -258 399 C-258.66 399.66 -259.32 400.32 -260 401 C-253.73254815 407.4770764 -247.44027114 413.92872354 -241.11598682 420.35032272 C-238.17927793 423.3337665 -235.25143039 426.32488208 -232.34301758 429.3359375 C-229.52961986 432.24797867 -226.69403647 435.13669881 -223.8425045 438.01139069 C-222.76496793 439.10540587 -221.69530661 440.20724245 -220.63428688 441.31728363 C-214.3457194 447.88426462 -208.99975103 452.17812035 -199.84794617 454.24859619 C-192.68360332 456.13884066 -187.1651838 462.08964772 -183 468 C-179.4453871 474.533543 -177.71762918 481.39337408 -176.1875 488.625 C-175.95869141 489.62273437 -175.72988281 490.62046875 -175.49414062 491.6484375 C-174.33881917 496.99047434 -173.36230369 501.64884417 -175 507 C-177.56767395 510.17833148 -179.0534376 511.80887792 -183.11120605 512.62818909 C-184.85730164 512.62963173 -184.85730164 512.62963173 -186.63867188 512.63110352 C-187.60795372 512.64183647 -187.60795372 512.64183647 -188.59681702 512.65278625 C-190.72152567 512.66962212 -192.84410863 512.65030543 -194.96875 512.62890625 C-196.451784 512.62973544 -197.9348179 512.63219673 -199.41784668 512.63621521 C-202.52152264 512.63906966 -205.62447553 512.62440809 -208.72802734 512.59692383 C-212.69951449 512.56284036 -216.66970921 512.56886188 -220.64125824 512.5875864 C-223.70231839 512.59817248 -226.76307957 512.58920424 -229.82411194 512.57420158 C-231.28808198 512.56903103 -232.7520834 512.5694879 -234.21604919 512.57574654 C-236.2651545 512.58121877 -238.31243143 512.56076504 -240.36132812 512.53344727 C-241.52539185 512.52724869 -242.68945557 512.52105011 -243.88879395 512.5146637 C-247.65866263 511.89104234 -249.32338554 510.68481105 -252 508 C-255.65342678 497.03971965 -250.34558813 481.06039918 -246.09326172 470.81542969 C-243.56136131 465.82773538 -240.58025225 462.18017514 -236 459 C-237.64409211 454.75721012 -240.80814335 451.94711951 -243.9909668 448.82958984 C-244.60424332 448.22084015 -245.21751984 447.61209045 -245.84938049 446.9848938 C-247.18075999 445.66446421 -248.51440608 444.34631697 -249.85004234 443.03019333 C-251.97014462 440.9403099 -254.08345343 438.84377238 -256.19502258 436.74526978 C-262.1998976 430.78008249 -268.21722616 424.82751598 -274.23803711 418.87841797 C-277.92314688 415.23627396 -281.60071788 411.5866488 -285.27408791 407.93266678 C-286.66926653 406.54798953 -288.06734757 405.16622987 -289.46848106 403.78757858 C-312.1438207 381.4752557 -312.1438207 381.4752557 -312.4375 363.625 C-312.30904759 349.01948476 -306.07225194 340.04940459 -296 329.875 C-295.0051912 328.91127897 -294.007309 327.95064787 -293 327 C-294.27230469 326.87044922 -294.27230469 326.87044922 -295.5703125 326.73828125 C-313.78695717 324.55628755 -327.9167354 317.82504227 -341 305 C-341.70125 304.33484375 -342.4025 303.6696875 -343.125 302.984375 C-356.58088305 289.21311969 -360.50608376 271.4117046 -360.34765625 252.78515625 C-359.87973206 233.05845747 -352.04960041 217.55005907 -338 204 C-337.36707031 203.33613281 -336.73414063 202.67226562 -336.08203125 201.98828125 C-331.99144683 197.96993673 -327.30726431 195.35628517 -322.25 192.75 C-321.30314331 192.2554834 -321.30314331 192.2554834 -320.3371582 191.75097656 C-308.53001595 185.96365536 -296.75041544 185.49355034 -283.85229492 185.55395508 C-281.04338412 185.56255855 -278.2364501 185.53346233 -275.42773438 185.50195312 C-273.63020894 185.50034299 -271.83267992 185.50091505 -270.03515625 185.50390625 C-269.20178238 185.49267227 -268.36840851 185.48143829 -267.50978088 185.46986389 C-263.48485276 185.51816334 -261.47422192 185.70190667 -257.98608398 187.89453125 C-255.20115185 190.84686741 -255.09158688 192.89069943 -254.859375 196.8125 C-255.05797683 199.90186172 -256.01252658 201.65762062 -258 204 C-261.49624108 206.33082738 -263.00619497 206.27407194 -267.14453125 206.34375 C-268.38009766 206.37339844 -269.61566406 206.40304688 -270.88867188 206.43359375 C-272.18353516 206.45550781 -273.47839844 206.47742188 -274.8125 206.5 C-294.5996059 206.84624889 -311.02954141 208.23046553 -325.8828125 222.62109375 C-329.28588855 226.44484526 -331.76069895 230.40943285 -334 235 C-334.4125 235.78375 -334.825 236.5675 -335.25 237.375 C-340.06564081 248.07642403 -339.84181318 262.26271679 -335.875 273.1875 C-334.97411977 275.15237247 -334.01930552 277.09387165 -333 279 C-332.56558594 279.81597656 -332.13117188 280.63195312 -331.68359375 281.47265625 C-325.29454852 292.08466015 -315.62566975 299.05796256 -304 303 C-300.00683249 303.98637909 -296.15838547 304.48601769 -292.06417847 304.79615784 C-289.95513985 305.00443004 -287.90148148 305.35602048 -285.81347656 305.71582031 C-279.66119586 306.51881406 -273.96233663 306.80111863 -268.50250244 303.48150635 C-262.14653889 298.44188621 -256.79060959 292.38407149 -251.375 286.375 C-248.8960517 283.71529001 -246.40340667 281.06929837 -243.90420532 278.42861938 C-242.36316844 276.79086892 -240.83604499 275.13986663 -239.32601929 273.47348022 C-230.29226683 263.64398367 -220.07536331 257.34226029 -206.5 256.6875 C-195.22404057 256.83896811 -185.98157677 261.06765431 -178.1015625 268.8828125 C-172.24347283 275.18582037 -167.88182095 282.23599891 -167.8671875 291.0390625 C-167.86589844 291.78414063 -167.86460937 292.52921875 -167.86328125 293.296875 C-167.86714844 294.06515625 -167.87101563 294.8334375 -167.875 295.625 C-167.87113281 296.40101563 -167.86726562 297.17703125 -167.86328125 297.9765625 C-167.87329867 303.74659734 -167.87329867 303.74659734 -169 306 C-152.09111517 306.81397834 -135.19245247 307.38251769 -118.26704407 307.68133545 C-110.40173827 307.8255557 -102.55247345 308.04255025 -94.69580078 308.44482422 C-55.59298811 311.46184127 -55.59298811 311.46184127 -21.19140625 296.1328125 C-13.12702031 288.75467758 -6.29318162 280.40736914 0.32261658 271.73373413 C6.93077292 263.27084379 14.26435937 258.76414319 25 257 C34.94594014 256.0277206 45.10984113 257.89884305 53.375 263.75 C61.08694089 270.24169708 67.13571635 277.87192055 69 288 C69.09382329 290.51943128 69.12992898 293.04132716 69.125 295.5625 C69.12886719 296.23474609 69.13273437 296.90699219 69.13671875 297.59960938 C69.13061073 300.67499752 68.97991229 303.06026313 68 306 C87.14604427 305.27111589 87.14604427 305.27111589 105 299 C105.81082031 298.56816406 106.62164062 298.13632812 107.45703125 297.69140625 C118.15266996 291.25944635 125.07744148 281.43720956 129.10546875 269.80859375 C131.74503237 258.57027704 131.44865533 245.29003019 126 235 C125.55269531 234.13117188 125.10539062 233.26234375 124.64453125 232.3671875 C117.82642181 220.12018127 107.98164475 213.61811678 95.03125 208.76171875 C87.15236515 206.78184434 78.96225811 206.85437132 70.88456726 206.86869812 C69.80966012 206.86658241 68.73475299 206.86446669 67.6272729 206.86228687 C64.04927501 206.85632691 60.47131278 206.85728412 56.89331055 206.8581543 C54.31869955 206.85512032 51.74408909 206.85159821 49.16947937 206.84762573 C43.63771764 206.8395438 38.10596048 206.8345799 32.57419395 206.83133507 C23.83051505 206.82581938 15.08687472 206.80890502 6.34321594 206.78999329 C3.34781558 206.78363811 0.35241511 206.77732954 -2.64298534 206.77101612 C-3.39134935 206.76943236 -4.13971336 206.7678486 -4.91075507 206.76621684 C-13.41323827 206.74831059 -21.91572413 206.73206676 -30.41821289 206.71704102 C-31.19478739 206.71566514 -31.9713619 206.71428927 -32.77146896 206.71287171 C-45.37718007 206.69090554 -57.98288113 206.68017492 -70.588608 206.67267027 C-83.54232598 206.66460306 -96.49595782 206.64133186 -109.44962662 206.6047166 C-117.43478651 206.58269076 -125.41976936 206.57302712 -133.40495809 206.57921693 C-139.51680277 206.5827627 -145.62842639 206.56555113 -151.74021721 206.54053879 C-154.24886761 206.53360085 -156.75754757 206.5335282 -159.2661972 206.54073906 C-162.68430557 206.54957396 -166.10145526 206.53401994 -169.51948547 206.51225281 C-170.51752852 206.52069534 -171.51557157 206.52913788 -172.54385835 206.53783625 C-176.88775945 206.486498 -179.33199577 206.4079018 -183.10425091 204.10445881 C-185.77823926 201.13608163 -185.91154242 199.05645025 -186.140625 195.1875 C-185.94202317 192.09813828 -184.98747342 190.34237938 -183 188 C-179.41483972 185.60989315 -177.85733033 185.75673398 -173.60083008 185.77294922 C-172.63456947 185.77251114 -172.63456947 185.77251114 -171.64878845 185.77206421 C-169.52223177 185.77345616 -167.39602663 185.78901062 -165.26953125 185.8046875 C-163.79408459 185.80841812 -162.31863545 185.81126486 -160.84318542 185.81326294 C-156.96169178 185.82089558 -153.08034804 185.84054083 -149.19891357 185.8626709 C-145.23744739 185.88313731 -141.27595695 185.89226635 -137.31445312 185.90234375 C-129.54290044 185.92378714 -121.77147123 185.95791855 -114 186 C-113.28652483 180.70797242 -113.29445528 175.69082971 -116.20511627 171.09869385 C-120.32757178 165.91430596 -125.17948582 161.39460059 -129.9453125 156.8125 C-131.47658654 155.29856108 -133.00534756 153.78207654 -134.53170776 152.26318359 C-138.54360907 148.28561777 -142.59106224 144.34620224 -146.64642334 140.4130249 C-149.9445773 137.20209834 -153.21655224 133.96520704 -156.48744392 130.72654724 C-160.40249487 126.85081194 -164.32825396 122.98602061 -168.2578125 119.125 C-169.37360373 118.02848618 -169.37360373 118.02848618 -170.51193619 116.90982056 C-172.63146989 114.83252342 -174.75793501 112.76262153 -176.88720703 110.6953125 C-177.50567001 110.08851151 -178.124133 109.48171051 -178.76133728 108.85652161 C-182.61197524 105.13728676 -186.61652622 102.06988487 -191 99 C-192.92578125 96.71875 -192.92578125 96.71875 -194.3125 94.5 C-194.78300781 93.7678125 -195.25351563 93.035625 -195.73828125 92.28125 C-200.11544387 84.36712315 -201.24307635 74.92497498 -198.84765625 66.15234375 C-195.67674409 58.1008571 -189.71450055 51.26720358 -182.203125 46.97265625 C-178.24880583 45.27432686 -174.24920162 44.72309026 -170.00073242 44.18896484 C-160.44051951 42.85824263 -151.04808468 40.80684043 -141.61328125 38.7890625 C-139.66107147 38.37511224 -137.70877369 37.96157682 -135.75639343 37.5484314 C-130.64525922 36.46573065 -125.53530501 35.37756123 -120.42559814 34.28814697 C-115.27725929 33.19145642 -110.12785356 32.0998006 -104.97851562 31.0078125 C-98.26201245 29.58311252 -91.54574806 28.15731697 -84.83049107 26.72675323 C-83.09299992 26.35718459 -81.35527427 25.98871643 -79.61730099 25.62142181 C-75.30822334 24.71011235 -71.00412966 23.78155322 -66.70562744 22.82150269 C-65.84899852 22.63324102 -64.99236959 22.44497936 -64.10978222 22.2510128 C-62.49888937 21.89674198 -60.88938721 21.53605638 -59.2817049 21.16749001 C-54.7736071 20.18512298 -50.83610262 19.90169852 -46.1953125 20.3046875 C-37.93679398 20.59524077 -32.23781494 15.76922423 -25.875 11.125 C-24.66080855 10.27195101 -23.44466886 9.42166808 -22.2265625 8.57421875 C-20.00896155 7.02558576 -17.80805889 5.46016411 -15.61279297 3.87939453 C-10.09922545 -0.08654107 -6.74207939 -1.04060157 0 0 Z M-59.85107422 42.63061523 C-60.72001816 42.81578705 -61.5889621 43.00095886 -62.48423767 43.19174194 C-65.34338581 43.80370539 -68.19892544 44.43103582 -71.0546875 45.05859375 C-73.04130899 45.48695993 -75.02813891 45.91436054 -77.01516724 46.34083557 C-82.23523537 47.46392578 -87.45237287 48.60009176 -92.66900635 49.73901367 C-97.99637806 50.89968232 -103.32641993 52.04794904 -108.65625 53.19726562 C-119.10681571 55.45272096 -129.55432704 57.72200052 -140 60 C-139.47731534 62.76276177 -138.89130413 65.3260876 -138 68 C-137.57113856 71.65855874 -137.30230974 75.329096 -137 79 C-126.74223471 77.56791828 -116.66079347 75.56327254 -106.53515625 73.41015625 C-104.88660823 73.06139903 -103.23804324 72.71272197 -101.58946228 72.36412048 C-98.16087877 71.63805945 -94.73296251 70.90893674 -91.30541992 70.17797852 C-86.92385553 69.24414048 -82.54004092 68.32135521 -78.1555872 67.40119267 C-74.76141706 66.68701127 -71.36886302 65.96537721 -67.97671318 65.24166679 C-66.36062527 64.89812917 -64.74396659 64.55726478 -63.12672615 64.21919441 C-60.86927749 63.74647282 -58.61429925 63.26331857 -56.35961914 62.77758789 C-55.07978653 62.50604385 -53.79995392 62.23449982 -52.4813385 61.95472717 C-48.14271785 60.76489774 -44.3884642 59.34218206 -41.125 56.1875 C-39.55883251 53.14217432 -39.45763914 51.38975539 -40 48 C-42.2056624 44.56176155 -43.63205621 42.40097371 -47.62649536 41.2301178 C-51.95193892 40.93506513 -55.64216893 41.68950768 -59.85107422 42.63061523 Z M-177 70 C-178.50643182 73.60233697 -179.26638891 75.85452769 -178.375 79.6875 C-175.95229336 83.76205208 -174.260045 85.62665333 -169.625 87 C-165.1362248 87 -163.40146502 85.84773815 -160 83 C-157.54334803 79.31502204 -157.29913509 76.28028214 -158 72 C-159.79363911 69.1899654 -161.01880935 67.49059532 -164 66 C-169.73235016 65.53013523 -172.99667817 65.40795438 -177 70 Z M-140.20703125 100.875 C-140.95791016 101.05546875 -141.70878906 101.2359375 -142.48242188 101.421875 C-143.25134766 101.61265625 -144.02027344 101.8034375 -144.8125 102 C-145.60076172 102.19078125 -146.38902344 102.3815625 -147.20117188 102.578125 C-149.1353499 103.04701664 -151.06784992 103.52282071 -153 104 C-148.37508621 109.55439924 -143.44639036 114.68525669 -138.3203125 119.77734375 C-137.50754852 120.58869278 -136.69478455 121.40004181 -135.85739136 122.23597717 C-133.28228262 124.8055259 -130.7037038 127.37155968 -128.125 129.9375 C-126.36956054 131.68791929 -124.61434983 133.438568 -122.859375 135.18945312 C-118.57555918 139.46229302 -114.28889528 143.73225899 -110 148 C-106.61152855 146.87050952 -105.80305816 145.87716782 -103.5625 143.1875 C-101.15510487 140.31693713 -98.6618111 137.63631944 -96 135 C-100.8753624 129.9979787 -105.77013224 125.01557383 -110.67895508 120.04638672 C-112.34691546 118.35326489 -114.01036304 116.65568505 -115.66918945 114.95361328 C-118.05291216 112.50931765 -120.45234739 110.08145729 -122.85546875 107.65625 C-123.96513252 106.50787659 -123.96513252 106.50787659 -125.09721375 105.33630371 C-125.79756241 104.63557739 -126.49791107 103.93485107 -127.21948242 103.21289062 C-127.8301506 102.59111938 -128.44081879 101.96934814 -129.06999207 101.32873535 C-132.57136858 98.91817389 -136.28528571 99.91701636 -140.20703125 100.875 Z M-90.7734375 158.79296875 C-95.53460027 167.36002915 -94 176.4311367 -94 186 C-82.12 186 -70.24 186 -58 186 C-57.9175 182.865 -57.835 179.73 -57.75 176.5 C-57.69537598 175.04303711 -57.69537598 175.04303711 -57.63964844 173.55664062 C-57.55558032 166.89085211 -58.78027269 161.47510226 -63.4128418 156.47509766 C-67.03589802 153.26685091 -70.52874623 151.33395321 -75.3125 150.6875 C-81.97867002 151.46263605 -86.3702612 153.73792556 -90.7734375 158.79296875 Z M-223.46411133 287.97827148 C-224.17393158 288.68429504 -224.88375183 289.3903186 -225.61508179 290.11773682 C-227.94727061 292.44254564 -230.26479456 294.78138872 -232.58203125 297.12109375 C-234.20318309 298.74463111 -235.82507639 300.3674284 -237.44767761 301.98951721 C-240.84041669 305.38537971 -244.22634454 308.78784155 -247.60717773 312.19555664 C-251.94260524 316.56501707 -256.29113628 320.92114192 -260.64436817 325.27285671 C-263.99149501 328.62052706 -267.3333866 331.97338187 -270.67352867 335.3280201 C-272.27553011 336.93638768 -273.87874733 338.54354522 -275.48319435 340.14947319 C-277.72149982 342.39211037 -279.95309881 344.64120689 -282.18286133 346.89233398 C-282.84727737 347.55584366 -283.51169342 348.21935333 -284.19624329 348.90296936 C-284.80310974 349.51836578 -285.4099762 350.13376221 -286.03523254 350.76780701 C-286.56262433 351.29855048 -287.09001612 351.82929396 -287.63338947 352.37612057 C-291.31021177 356.7451167 -291.43027719 360.77697219 -291.3125 366.3125 C-290.70345956 371.55024779 -287.72188357 374.48110997 -283.9375 377.8125 C-279.95564493 380.77771122 -277.12677924 381.1326635 -272.23046875 381.328125 C-259.70967939 379.48618751 -248.43698127 363.61489302 -239.8203125 355.0234375 C-239.16148952 354.3674419 -238.50266655 353.7114463 -237.82387924 353.03557205 C-234.3476799 349.574244 -230.87427156 346.11014516 -227.40332031 342.64355469 C-223.83262403 339.07837299 -220.25271639 335.52259055 -216.67064095 331.96884727 C-213.89973599 329.21659146 -211.13558649 326.45762569 -208.37322617 323.69679642 C-207.05607558 322.38265993 -205.73643925 321.07100976 -204.4142189 319.76197433 C-202.56729435 317.93218275 -200.73015261 316.09307207 -198.89501953 314.25146484 C-198.35471603 313.72037613 -197.81441254 313.18928741 -197.25773621 312.6421051 C-193.12847073 308.46723971 -189.56057975 304.03784762 -188.46875 298.12109375 C-188.53711348 292.25037968 -188.8994912 288.54380705 -193 284 C-196.97121567 280.33426246 -200.47364943 278.27460332 -205.875 277.6875 C-213.72171245 278.47217125 -218.15721242 282.58021443 -223.46411133 287.97827148 Z M11.71362305 288.80053711 C10.69497414 289.81349098 10.69497414 289.81349098 9.65574646 290.84690857 C7.43120085 293.0640921 5.22130688 295.29526167 3.01171875 297.52734375 C1.46165307 299.07979601 -0.08915527 300.63150707 -1.64067078 302.18251038 C-4.88200567 305.42696562 -8.11653451 308.67800467 -11.34594727 311.93432617 C-15.4828303 316.10524421 -19.63281352 320.26281887 -23.78750324 324.41599178 C-26.98712105 327.61615363 -30.18149847 330.82150287 -33.37413597 334.0286274 C-34.90274736 335.56359531 -36.43256616 337.09736179 -37.96361732 338.62989616 C-40.10102349 340.77164414 -42.23171267 342.91985252 -44.3605957 345.07006836 C-45.30739197 346.01550507 -45.30739197 346.01550507 -46.27331543 346.9800415 C-51.33947744 352.12051173 -54.4776966 356.39215323 -55.0625 363.7265625 C-54.925964 368.69305959 -52.80357924 372.04439226 -49.6875 375.75 C-45.7955483 379.00837816 -42.6950883 380.78026633 -37.625 381.4375 C-29.45510515 380.45147821 -24.11487454 375.7010111 -18.51416016 370.01586914 C-17.81394745 369.32105942 -17.11373474 368.62624969 -16.39230347 367.91038513 C-14.09789931 365.62841191 -11.81822576 363.33234389 -9.5390625 361.03515625 C-7.94168713 359.43793595 -6.34364402 357.8413832 -4.7449646 356.24546814 C-1.40512767 352.90701254 1.92765329 349.56171645 5.25537109 346.21118164 C9.5206775 341.91743442 13.80143269 337.63949223 18.08733177 333.36631107 C21.38547238 330.07512342 24.67620539 326.77661056 27.9646492 323.47573662 C29.54064841 321.89522328 31.11874034 320.31679383 32.69895554 318.74049568 C34.90359318 316.5387678 37.09828329 314.32758465 39.29052734 312.11352539 C39.94402161 311.46453278 40.59751587 310.81554016 41.27081299 310.1468811 C45.58597431 305.7601292 48.24018008 302.03655874 48.4375 295.6875 C48.30702933 290.46867315 46.38822373 286.89998669 43 283 C30.95586842 273.60557737 21.10685075 279.23732931 11.71362305 288.80053711 Z M-226 479 C-228.46797314 483.52167936 -229 486.78959715 -229 492 C-218.77 492 -208.54 492 -198 492 C-199.351385 481.73771862 -199.351385 481.73771862 -205 475 C-212.59447521 470.43057781 -220.71400892 472.05479506 -226 479 Z M10.25 479.125 C8.42476609 483.04636857 8.42476609 483.04636857 7 492 C17.56 492 28.12 492 39 492 C37.15787457 481.55666677 37.15787457 481.55666677 30.875 474.125 C22.89904779 471.00397522 15.76378018 472.4296955 10.25 479.125 Z " fill="#000000" transform="translate(360,0)"/>
<path d="M0 0 C1.32837891 -0.03673828 1.32837891 -0.03673828 2.68359375 -0.07421875 C8.47665416 -0.10011917 11.70391531 0.55097497 16.125 4.375 C17.86131636 7.84763273 17.72690402 11.58693013 17.125 15.375 C14.94340855 18.13069447 13.25322506 19.81088747 10.125 21.375 C6.86036547 21.64018877 3.58671113 21.60654074 0.3125 21.625 C-1.04198242 21.6559375 -1.04198242 21.6559375 -2.42382812 21.6875 C-7.39029371 21.71669304 -10.86467255 21.66056948 -14.875 18.375 C-17.44132517 14.95323311 -17.23935051 11.52859579 -16.875 7.375 C-13.40486483 -0.43280413 -7.60758476 0.01097776 0 0 Z " fill="#000000" transform="translate(271.875,240.625)"/>
<path d="M0 0 C0.89460938 -0.03738281 1.78921875 -0.07476562 2.7109375 -0.11328125 C7.17607314 -0.17255296 10.27550727 -0.11492136 13.828125 2.7734375 C16.6340438 5.78753737 17.15657279 6.56529752 17.625 10.625 C17.13072704 15.56772958 15.71171699 16.91328301 12.25 20.375 C8.6450387 22.17748065 4.47001652 21.6453256 0.5 21.6875 C-0.39460938 21.71650391 -1.28921875 21.74550781 -2.2109375 21.77539062 C-8.05241579 21.831393 -11.29665423 21.24653769 -15.75 17.375 C-17.48631636 13.90236727 -17.35190402 10.16306987 -16.75 6.375 C-11.68344469 -0.02485934 -7.62438325 0.11879351 0 0 Z " fill="#000000" transform="translate(326.75,240.625)"/>
<path d="M0 0 C2.86916187 2.51051663 3.78664803 4.33149715 4.9375 7.9375 C5.01704675 11.83529079 4.15489416 13.76765877 2 17 C-0.36918322 19.16013764 -1.97850701 19.93969719 -5.18359375 20.12890625 C-9.13430129 19.9148285 -11.40327243 19.46573859 -14.5625 17 C-16.520869 12.91296904 -16.9591664 9.44924245 -16 5 C-11.19738834 -1.06645683 -7.27922186 -1.87809105 0 0 Z " fill="#000000" transform="translate(223,242)"/>
<path d="M0 0 C3 1.4375 3 1.4375 5 4 C6.29282605 8.33096727 6.53077114 11.75268782 4.75 15.9375 C2.7297043 18.31856279 1.06245731 19.82889264 -2.0859375 20.3359375 C-5.93211019 20.40157185 -8.48452922 20.24699641 -12 18.5625 C-14.84918034 14.91198769 -15.2942122 11.57663425 -15 7 C-11.98054704 -0.09571447 -7.05326098 -0.95280894 0 0 Z " fill="#000000" transform="translate(144,186)"/>
</svg>
