<?xml version="1.0" encoding="UTF-8"?>
<svg version="1.1" xmlns="http://www.w3.org/2000/svg" width="512" height="512">
<path d="M0 0 C1.01172272 -0.0071553 2.02344543 -0.01431061 3.06582642 -0.02168274 C4.16507446 -0.02437164 5.26432251 -0.02706055 6.3968811 -0.02983093 C7.56345245 -0.03640213 8.7300238 -0.04297333 9.9319458 -0.04974365 C13.7934679 -0.06945467 17.65495106 -0.08113724 21.51651001 -0.09111023 C22.85253545 -0.09516174 24.18856069 -0.09927877 25.52458572 -0.10346031 C31.80955605 -0.1225039 38.09451477 -0.13673139 44.37950838 -0.14507228 C51.59803211 -0.15481352 58.81624666 -0.18105431 66.03466165 -0.22157317 C71.63580223 -0.25191716 77.23685517 -0.26655868 82.83807623 -0.26985329 C86.17261017 -0.27218493 89.50655332 -0.28292449 92.84104538 -0.30631447 C109.79538544 -0.41780662 124.95886906 -0.19258572 140.24307251 7.95967102 C140.91169312 8.30731506 141.58031372 8.65495911 142.26919556 9.01313782 C147.61939237 11.86670615 152.38235452 15.04617702 156.86807251 19.14717102 C158.20611938 20.34793274 158.20611938 20.34793274 159.57119751 21.57295227 C173.77339329 34.97966987 183.58447786 53.83219316 184.27212524 73.59565735 C184.29829925 75.89004416 184.30747464 78.18467352 184.30166626 80.47920227 C184.30690811 81.7140184 184.31214996 82.94883453 184.31755066 84.22106934 C184.32393449 86.81695306 184.32268148 89.41286584 184.31411743 92.00874329 C184.30561747 95.93888412 184.33440801 99.86756415 184.36611938 103.79756165 C184.43733558 128.47774461 184.43733558 128.47774461 179.86807251 140.14717102 C179.54943237 140.96516174 179.23079224 141.78315247 178.90249634 142.62593079 C178.03579543 144.65020699 177.09148127 146.58000448 176.05557251 148.52217102 C175.70792847 149.19079163 175.36028442 149.85941223 175.00210571 150.54829407 C172.14853738 155.89849088 168.96906651 160.66145303 164.86807251 165.14717102 C164.0675647 166.03920227 163.26705688 166.93123352 162.44229126 167.85029602 C153.04880762 177.80113542 141.90202549 184.8330088 128.86807251 189.14717102 C127.76664917 189.5410199 127.76664917 189.5410199 126.64297485 189.94282532 C115.90101815 193.25111425 104.72918189 192.47297276 93.61807251 192.33467102 C91.5048008 192.31959706 89.39151868 192.30591346 87.27822876 192.2936554 C82.14124978 192.26086453 77.00477784 192.20923159 71.86807251 192.14717102 C71.86807251 197.42717102 71.86807251 202.70717102 71.86807251 208.14717102 C74.09557251 208.06467102 76.32307251 207.98217102 78.61807251 207.89717102 C110.61228514 207.5285741 140.35828736 223.44942718 162.86807251 245.14717102 C163.58608032 245.80201477 164.30408813 246.45685852 165.04385376 247.13154602 C171.33343544 253.03039217 176.10277229 260.00833409 180.86807251 267.14717102 C181.49842407 268.08174133 182.12877563 269.01631165 182.77822876 269.97920227 C186.60216501 276.06788436 189.41397695 282.48183527 192.05557251 289.14717102 C192.37671021 289.93422424 192.6978479 290.72127747 193.02871704 291.53218079 C199.86738131 309.55480013 200.51926269 327.80949542 200.38955688 346.89399719 C200.36665164 350.29399482 200.38039549 353.69274846 200.40330791 357.09270477 C200.55932868 384.29106847 200.55932868 384.29106847 195.86807251 396.14717102 C195.54951294 396.96387268 195.23095337 397.78057434 194.90274048 398.62202454 C194.03656185 400.64819068 193.09219007 402.5786756 192.05557251 404.52217102 C191.53410645 405.52510193 191.53410645 405.52510193 191.00210571 406.54829407 C188.14853738 411.89849088 184.96906651 416.66145303 180.86807251 421.14717102 C180.0675647 422.03920227 179.26705688 422.93123352 178.44229126 423.85029602 C165.71694586 437.33069086 148.05761676 446.91936931 129.35675621 448.43099785 C125.43866117 448.54165345 121.52616285 448.56491953 117.60708618 448.55122375 C116.1124267 448.55694034 114.61777157 448.56390952 113.12312317 448.57202148 C109.09809759 448.58982835 105.07329151 448.58880796 101.04823852 448.5830791 C97.67147355 448.5799683 94.2947496 448.58610073 90.91799051 448.59211785 C82.94225007 448.60612125 74.96661684 448.60463749 66.99087524 448.59321594 C58.80083881 448.58174567 50.61113027 448.59580156 42.42113703 448.62261242 C35.35487846 448.64486663 28.28872208 448.65138483 21.222431 448.64553601 C17.01734483 448.64218753 12.81246858 448.64443907 8.60741234 448.66178703 C4.64843865 448.67740966 0.68994522 448.67313385 -3.26901054 448.65448189 C-4.70918317 448.65083753 -6.14939262 448.65378069 -7.58953094 448.66436768 C-20.63061895 448.75280369 -32.89594077 446.52771504 -44.50692749 440.33467102 C-45.1755481 439.98702698 -45.8441687 439.63938293 -46.53305054 439.28120422 C-51.88189035 436.42835966 -56.65135362 433.2523234 -61.13192749 429.14717102 C-62.0355603 428.32346008 -62.93919312 427.49974915 -63.87020874 426.65107727 C-79.62307335 411.62297233 -88.04586237 392.5399075 -88.61341858 370.87028503 C-88.68195614 365.59682293 -88.68901043 360.32576252 -88.65341187 355.05220032 C-88.63073628 351.65794937 -88.64408373 348.26496089 -88.66717815 344.87075424 C-88.89198888 305.90909489 -78.59362634 273.63662806 -51.13192749 245.14717102 C-50.47708374 244.42916321 -49.82223999 243.7111554 -49.14755249 242.97138977 C-43.24870635 236.68180809 -36.27076442 231.91247124 -29.13192749 227.14717102 C-28.19735718 226.51681946 -27.26278687 225.8864679 -26.29989624 225.23701477 C-6.50568067 212.80545449 16.70773531 207.28938075 39.86807251 208.14717102 C39.86807251 202.86717102 39.86807251 197.58717102 39.86807251 192.14717102 C38.58344116 192.16811829 37.29880981 192.18906555 35.97525024 192.21064758 C31.13894108 192.28388994 26.30267927 192.32927248 21.4659729 192.36689758 C19.38581049 192.38682343 17.30570267 192.41397422 15.22573853 192.44892883 C-0.51186598 192.7064877 -14.33046067 191.8960855 -28.50692749 184.33467102 C-29.1755481 183.98702698 -29.8441687 183.63938293 -30.53305054 183.28120422 C-35.88189035 180.42835966 -40.65135362 177.2523234 -45.13192749 173.14717102 C-46.0355603 172.32346008 -46.93919312 171.49974915 -47.87020874 170.65107727 C-63.48555801 155.75416085 -72.02909663 136.71393182 -72.61341858 115.20204163 C-72.68168198 110.15369001 -72.6864097 105.1079494 -72.65341187 100.0592804 C-72.63197407 96.15565356 -72.65328896 92.2538669 -72.67880249 88.35029602 C-72.70818072 63.8847673 -72.70818072 63.8847673 -68.13192749 52.14717102 C-67.81336792 51.3289386 -67.49480835 50.51070618 -67.16659546 49.66767883 C-66.29961839 47.64397302 -65.35457286 45.71427118 -64.31942749 43.77217102 C-63.97613403 43.107901 -63.63284058 42.44363098 -63.27914429 41.75923157 C-59.30551261 34.27542145 -54.33865444 27.92087051 -48.13192749 22.14717102 C-47.47063843 21.48072571 -46.80934937 20.8142804 -46.12802124 20.12763977 C-34.13522193 8.52999036 -16.91364068 0.08255126 0 0 Z M-28.38192749 49.45967102 C-39.45231479 62.40452629 -40.31912206 77.46870315 -40.31723022 93.78388977 C-40.31940875 95.87915119 -40.33760166 97.97387775 -40.35653687 100.06904602 C-40.43328817 118.24343426 -38.00706662 132.94860768 -25.03036499 146.31123352 C-12.8034494 157.84687473 1.27091198 160.30113758 17.4960022 160.29243469 C18.4127774 160.2957933 19.32955261 160.29915192 20.27410889 160.3026123 C23.27940254 160.31204502 26.28464001 160.31406157 29.28994751 160.31513977 C31.39828514 160.31835782 33.50662254 160.3217223 35.61495972 160.32522583 C40.02615883 160.33119801 44.4373384 160.33306771 48.84854126 160.33247375 C54.47112536 160.33237228 60.09358279 160.34601855 65.71613693 160.36324596 C70.06931115 160.37442346 74.4224553 160.3763912 78.7756424 160.37586403 C80.84705288 160.37703572 82.91846435 160.38141135 84.98986053 160.3891964 C105.30786102 160.45840904 122.68775598 159.94682858 138.03213501 145.04560852 C150.67887506 131.64101139 152.05542294 116.16981923 152.05337524 98.51045227 C152.05555377 96.41519085 152.07374668 94.32046429 152.09268188 92.22529602 C152.16943319 74.05090778 149.74321164 59.34573436 136.76651001 45.98310852 C124.38794663 34.30439325 110.5355971 31.99306821 94.12661743 32.00190735 C93.2096962 31.99854874 92.29277496 31.99519012 91.34806824 31.99172974 C88.34821173 31.98231192 85.34841158 31.98028134 82.34854126 31.97920227 C80.24163287 31.97598355 78.13472471 31.97261902 76.02781677 31.96911621 C71.62259402 31.96314802 67.21739082 31.96127395 62.81216431 31.96186829 C57.19745596 31.96196983 51.58287429 31.94831539 45.96819592 31.93109608 C41.61931291 31.91991957 37.27046 31.9179508 32.9215641 31.91847801 C30.8529447 31.91730649 28.7843243 31.91293183 26.71571922 31.90514565 C5.04104158 31.83119033 -12.68605007 32.82321667 -28.38192749 49.45967102 Z M-24.13192749 265.14717102 C-25.0046228 265.95154602 -25.87731812 266.75592102 -26.77645874 267.58467102 C-47.84931844 287.80450641 -55.67286255 313.45284173 -56.28004456 341.9263916 C-56.34016654 345.4582286 -56.36460372 348.98989939 -56.38192749 352.52217102 C-56.38737579 353.1999057 -56.3928241 353.87764038 -56.3984375 354.57591248 C-56.51064009 373.33022091 -54.42423443 388.51903339 -41.03036499 402.31123352 C-27.92707017 414.67370602 -12.85814134 416.29928395 4.4335022 416.29243469 C6.2768364 416.29747261 6.2768364 416.29747261 8.15740967 416.3026123 C11.50476933 416.31044513 14.85206693 416.31378757 18.19943142 416.31442809 C20.29797819 416.3151425 22.3965186 416.31728419 24.49506378 416.31992531 C31.83685209 416.32915687 39.17862234 416.333263 46.52041626 416.33247375 C53.33057692 416.33187376 60.14065817 416.34241595 66.95079875 416.35821742 C72.82544851 416.37135553 78.70007252 416.37665503 84.57473683 416.37601835 C88.07105005 416.37576517 91.56729261 416.37851543 95.063591 416.3891964 C98.97077954 416.40080846 102.87786181 416.39609242 106.7850647 416.39009094 C107.92108124 416.39571045 109.05709778 416.40132996 110.22753906 416.40711975 C127.5898299 416.33980526 141.37506174 413.33713455 154.03213501 401.04560852 C167.14859922 387.14313896 168.08652199 371.02257496 168.05557251 352.77217102 C168.05463593 352.06196808 168.05369934 351.35176514 168.05273438 350.62004089 C167.96867995 321.1989228 163.65043097 294.50926957 142.86807251 272.14717102 C141.66151001 270.83812805 141.66151001 270.83812805 140.43057251 269.50263977 C121.1937933 249.45430894 96.33446841 240.7912761 69.04336548 240.04219055 C34.93051118 239.3413715 2.23866029 240.6394976 -24.13192749 265.14717102 Z " fill="#000000" transform="translate(120.13192749023438,31.852828979492188)"/>
<path d="M0 0 C1.06992187 0.474375 2.13984375 0.94875 3.2421875 1.4375 C19.75466286 9.51889971 30.60523995 22.82755446 37 40 C39.21162906 47.08199855 39.29134563 53.73995837 39.28088379 61.12583923 C39.28682603 62.4412284 39.29276828 63.75661757 39.29889059 65.11186701 C39.31494964 68.74773938 39.31860516 72.38353261 39.32008553 76.01943624 C39.32380062 79.94658782 39.33890184 83.87369899 39.35235596 87.80082703 C39.37946183 96.37919077 39.39156135 104.95753574 39.40037727 113.53593516 C39.4059101 118.89435327 39.41438603 124.2527642 39.42338562 129.61117744 C39.44775861 144.45461415 39.46836254 159.29804514 39.4751358 174.14150143 C39.4757945 175.56504012 39.4757945 175.56504012 39.47646651 177.01733718 C39.47712134 178.44421115 39.47712134 178.44421115 39.4777894 179.89991087 C39.47867633 181.82739826 39.47956945 183.75488566 39.48046875 185.68237305 C39.48091161 186.6384662 39.48135447 187.59455935 39.48181075 188.57962502 C39.48971085 204.07985356 39.5246369 219.57989431 39.57118779 235.08005028 C39.61862288 251.00335923 39.64353971 266.92657391 39.64587164 282.84995466 C39.64770425 291.78669545 39.65918682 300.72319119 39.69551086 309.65986443 C39.72632332 317.26708837 39.73654764 324.87399146 39.72003466 332.48126595 C39.71222609 336.36106392 39.7140567 340.24021581 39.74214935 344.11993408 C39.77235135 348.32948068 39.75588292 352.53757437 39.73498535 356.74717712 C39.75109816 357.96838994 39.76721097 359.18960276 39.78381205 360.44782203 C39.6921079 368.34263088 38.06468367 372.9514987 33 379 C32.36384766 379.87382324 31.72769531 380.74764648 31.07226562 381.64794922 C30.24758789 382.71553467 30.24758789 382.71553467 29.40625 383.8046875 C28.46072266 385.03541992 28.46072266 385.03541992 27.49609375 386.29101562 C26.83738281 387.14373047 26.17867188 387.99644531 25.5 388.875 C20.26210755 395.69969412 15.08200592 402.55845525 10 409.5 C7.66998985 412.66912322 5.33582209 415.8351586 3 419 C2.31808594 419.92538574 1.63617188 420.85077148 0.93359375 421.80419922 C-1.20037753 424.6899984 -3.34844361 427.56479579 -5.5 430.4375 C-6.15871094 431.33210938 -6.81742187 432.22671875 -7.49609375 433.1484375 C-15.16003362 443.32000595 -15.16003362 443.32000595 -22 444.53125 C-22.99 444.5209375 -23.98 444.510625 -25 444.5 C-25.99 444.5103125 -26.98 444.520625 -28 444.53125 C-35.41748815 443.21773647 -39.24869163 437.60935564 -43.5 431.9375 C-44.10602051 431.14384033 -44.71204102 430.35018066 -45.33642578 429.5324707 C-50.16036385 423.18882392 -54.88743264 416.77230702 -59.59204102 410.33984375 C-64.76451595 403.2765507 -70.06550157 396.31524814 -75.40771484 389.37963867 C-89.1217876 371.50695741 -89.1217876 371.50695741 -89.13422108 364.76142406 C-89.13867892 363.64380568 -89.14313676 362.52618729 -89.14772969 361.37470168 C-89.14754533 360.13650957 -89.14736097 358.89831746 -89.14717102 357.62260437 C-89.15084771 356.31516402 -89.1545244 355.00772366 -89.1583125 353.6606639 C-89.16835 350.01897229 -89.17205213 346.37729716 -89.17470181 342.73559368 C-89.17859996 338.81236434 -89.18817897 334.88914811 -89.19691467 330.96592712 C-89.21669815 321.48200317 -89.22674997 311.99807811 -89.23564246 302.51413867 C-89.24002432 298.04737177 -89.24539158 293.58060606 -89.25063133 289.1138401 C-89.26764932 274.26207443 -89.28214142 259.4103095 -89.28938007 244.55853558 C-89.29128998 240.70235379 -89.2932103 236.846172 -89.29516602 232.98999023 C-89.29564976 232.03155332 -89.2961335 231.0731164 -89.2966319 230.08563594 C-89.3049243 214.57484493 -89.33024529 199.06413124 -89.36274669 183.55337396 C-89.39584907 167.62572153 -89.41383191 151.69810833 -89.41702431 135.77042133 C-89.41918701 126.82904796 -89.42789991 117.88778718 -89.45348549 108.94644737 C-89.47523635 101.3275337 -89.48322159 93.70875994 -89.47351871 86.08981874 C-89.46898598 82.20564885 -89.47079962 78.32176733 -89.49028015 74.43763733 C-89.50799998 70.87357548 -89.50684371 67.31001046 -89.49138286 63.74594269 C-89.48791047 61.8627644 -89.50396746 59.97958036 -89.52098733 58.09647578 C-89.39016408 40.62006999 -82.10894595 24.99247341 -69.890625 12.66015625 C-51.8275276 -3.96277528 -22.7849422 -10.43016428 0 0 Z M-43 34 C-43.87205078 34.57621094 -43.87205078 34.57621094 -44.76171875 35.1640625 C-48.89071595 38.22180854 -51.81973386 42.38864064 -54 47 C-54 47.99 -54 48.98 -54 50 C-53.3709375 49.80664062 -52.741875 49.61328125 -52.09375 49.4140625 C-50.80984375 49.02347656 -50.80984375 49.02347656 -49.5 48.625 C-48.6646875 48.36976562 -47.829375 48.11453125 -46.96875 47.8515625 C-45.9890625 47.57054688 -45.009375 47.28953125 -44 47 C-42.78570312 46.64421875 -41.57140625 46.2884375 -40.3203125 45.921875 C-35.35533856 44.70579581 -30.46750314 44.61747326 -25.375 44.625 C-23.92891357 44.62415405 -23.92891357 44.62415405 -22.45361328 44.62329102 C-14.37223143 44.74684096 -7.61225561 46.23695095 0 49 C1.32828976 49.35289546 2.65980808 49.69541093 4 50 C3.14566654 43.99857115 0.17625591 40.26622911 -4 36 C-15.80853688 27.407101 -30.5933853 25.41262998 -43 34 Z M-48 86 C-55.37010447 95.54310825 -57.16620757 104.47948943 -57.12025452 116.43455505 C-57.12110894 117.2572465 -57.12196337 118.07993795 -57.12284368 118.92755944 C-57.12448389 121.66974639 -57.1190011 124.41187146 -57.11352539 127.15405273 C-57.11324318 129.12550353 -57.11340192 131.09695442 -57.1139679 133.06840515 C-57.11425454 138.41080469 -57.10837925 143.75318173 -57.10139394 149.09557605 C-57.09513831 154.68229225 -57.09455485 160.26900898 -57.09336853 165.85572815 C-57.09026174 176.43070783 -57.08205712 187.00567717 -57.07201904 197.5806523 C-57.06083768 209.6216966 -57.05534235 221.66274139 -57.05032361 233.70378959 C-57.03987397 258.46919899 -57.02208545 283.23459848 -57 308 C-51.72 306.02 -46.44 304.04 -41 302 C-41 229.4 -41 156.8 -41 82 C-44.31049397 82 -45.60801794 83.77110763 -48 86 Z M-9 82 C-9 154.6 -9 227.2 -9 302 C-1.04368177 305.12175579 -1.04368177 305.12175579 7 308 C7.04674988 282.09595448 7.08200351 256.1919153 7.10362434 230.28783607 C7.11393072 218.25974745 7.1279789 206.23168506 7.15087891 194.20361328 C7.17083227 183.718234 7.18372108 173.23287372 7.18817699 162.74747598 C7.19078106 157.19712177 7.19688855 151.64682191 7.21146011 146.09648514 C7.22507474 140.86809176 7.22921479 135.63977493 7.22621536 130.41136551 C7.22676379 128.49661848 7.23071803 126.5818688 7.23841095 124.66713715 C7.36222369 103.2432783 7.36222369 103.2432783 -3 85 C-5.65147083 82.57886682 -5.65147083 82.57886682 -9 82 Z M-43 338 C-43.58265625 338.38414062 -44.1653125 338.76828125 -44.765625 339.1640625 C-50.85363386 343.68394786 -54.50743748 350.28847737 -56.00097656 357.62695312 C-55.99907323 362.25204659 -52.93840495 365.0676018 -50 368.375 C-48.7003804 369.93391392 -47.40359676 371.49519561 -46.109375 373.05859375 C-45.43326172 373.86151855 -44.75714844 374.66444336 -44.06054688 375.49169922 C-40.61942335 379.68057399 -37.44044241 384.05653122 -34.25 388.4375 C-33.65445313 389.24815918 -33.05890625 390.05881836 -32.4453125 390.89404297 C-30.24065994 393.89916385 -28.06782854 396.89825719 -26 400 C-25.34 400 -24.68 400 -24 400 C-22.65128674 398.53825674 -22.65128674 398.53825674 -21.3046875 396.58203125 C-20.76070312 395.83228027 -20.21671875 395.0825293 -19.65625 394.31005859 C-19.0684375 393.48586426 -18.480625 392.66166992 -17.875 391.8125 C-13.86254996 386.21747991 -9.80952972 380.70666399 -5.4453125 375.37890625 C-4.7042627 374.45940186 -3.96321289 373.53989746 -3.19970703 372.5925293 C-1.75624805 370.8092727 -0.29154865 369.04295957 1.19580078 367.29614258 C4.8332112 362.91843865 4.8332112 362.91843865 6.07666016 357.54858398 C4.35644761 348.95724498 -0.76252438 342.07807922 -7.95703125 337.21875 C-19.0012929 330.63020385 -32.28461909 330.70870698 -43 338 Z " fill="#000000" transform="translate(441,36)"/>
<path d="M0 0 C1.05489624 -0.00935994 1.05489624 -0.00935994 2.13110352 -0.01890898 C4.47576936 -0.03479977 6.81938988 -0.02225106 9.1640625 -0.00964355 C10.84977828 -0.01506645 12.53548932 -0.02219005 14.22119141 -0.03088379 C18.79145963 -0.04910026 23.36136618 -0.04205658 27.93164062 -0.02936745 C32.71745774 -0.01923109 37.50324416 -0.02863489 42.2890625 -0.03491211 C50.32557731 -0.04218666 58.36194503 -0.03260586 66.3984375 -0.0135498 C75.68597197 0.00821857 84.97315519 0.00116706 94.26068115 -0.02085543 C102.23877974 -0.0390149 110.21677267 -0.04156507 118.19488525 -0.03110075 C122.95810706 -0.02486883 127.72116384 -0.02402189 132.484375 -0.0372467 C136.96279317 -0.04881255 141.44075904 -0.04076615 145.91912842 -0.01766968 C147.56141408 -0.0123865 149.20373788 -0.01388971 150.8460083 -0.02272034 C153.09055875 -0.03367555 155.33366615 -0.01991476 157.578125 0 C158.83318848 0.0015081 160.08825195 0.0030162 161.38134766 0.00457001 C166.52240898 0.76397278 169.571799 3.25716841 173.13085938 6.91418457 C175.70876589 12.50116689 175.3593047 17.92747971 175.3203125 24.00793457 C175.3241394 25.31697754 175.32796631 26.62602051 175.33190918 27.97473145 C175.33778855 30.73859653 175.32929291 33.50194259 175.31054688 36.26574707 C175.28775692 39.79656288 175.30088859 43.32616234 175.32483673 46.85693359 C175.34282206 50.24069635 175.33020482 53.62413733 175.3203125 57.00793457 C175.32840942 58.27057129 175.33650635 59.53320801 175.34484863 60.83410645 C175.22622991 71.94864329 175.22622991 71.94864329 170.7890625 76.50793457 C166.25432738 80.07196932 163.32110309 81.0089683 157.578125 81.01586914 C156.52322876 81.02522908 156.52322876 81.02522908 155.44702148 81.03477812 C153.10235564 81.05066891 150.75873512 81.0381202 148.4140625 81.0255127 C146.72834672 81.03093559 145.04263568 81.03805919 143.35693359 81.04675293 C138.78666537 81.0649694 134.21675882 81.05792572 129.64648438 81.04523659 C124.86066726 81.03510023 120.07488084 81.04450404 115.2890625 81.05078125 C107.25254769 81.0580558 99.21617997 81.048475 91.1796875 81.02941895 C81.89215303 81.00765057 72.60496981 81.01470208 63.31744385 81.03672457 C55.33934526 81.05488404 47.36135233 81.05743421 39.38323975 81.04696989 C34.62001794 81.04073798 29.85696116 81.03989103 25.09375 81.05311584 C20.61533183 81.06468169 16.13736596 81.05663529 11.65899658 81.03353882 C10.01671092 81.02825564 8.37438712 81.02975885 6.7321167 81.03858948 C4.48756625 81.04954469 2.24445885 81.0357839 0 81.01586914 C-1.25506348 81.01436104 -2.51012695 81.01285294 -3.80322266 81.01129913 C-8.94428398 80.25189636 -11.993674 77.75870073 -15.55273438 74.10168457 C-18.13064089 68.51470225 -17.7811797 63.08838943 -17.7421875 57.00793457 C-17.7460144 55.6988916 -17.74984131 54.38984863 -17.75378418 53.0411377 C-17.75966355 50.27727261 -17.75116791 47.51392655 -17.73242188 44.75012207 C-17.70963192 41.21930626 -17.72276359 37.6897068 -17.74671173 34.15893555 C-17.76469706 30.7751728 -17.75207982 27.39173181 -17.7421875 24.00793457 C-17.75028442 22.74529785 -17.75838135 21.48266113 -17.76672363 20.1817627 C-17.64810491 9.06722585 -17.64810491 9.06722585 -13.2109375 4.50793457 C-8.67620238 0.94389982 -5.74297809 0.00690085 0 0 Z M14.7890625 32.50793457 C14.7890625 37.78793457 14.7890625 43.06793457 14.7890625 48.50793457 C57.0290625 48.50793457 99.2690625 48.50793457 142.7890625 48.50793457 C142.7890625 43.22793457 142.7890625 37.94793457 142.7890625 32.50793457 C100.5490625 32.50793457 58.3090625 32.50793457 14.7890625 32.50793457 Z " fill="#000000" transform="translate(97.2109375,335.4920654296875)"/>
<path d="M0 0 C5.82485779 3.51996782 10.54466582 8.98962934 12.5625 15.5 C13.36764105 23.33608208 13.68710392 31.11922577 8.5625 37.5 C3.75801361 42.54521222 -0.59927055 46.10562995 -7.70703125 46.8359375 C-16.22326573 46.92983204 -22.11345494 46.6177288 -28.40234375 40.62890625 C-34.7841668 33.72505269 -35.91792252 28.29832071 -35.7421875 18.9453125 C-35.04689797 11.08319245 -31.38995981 6.95041296 -25.53515625 1.9453125 C-18.47077988 -2.92213491 -7.84396301 -3.47595223 0 0 Z " fill="#000000" transform="translate(227.4375,81.5)"/>
<path d="M0 0 C5.82485779 3.51996782 10.54466582 8.98962934 12.5625 15.5 C13.36764105 23.33608208 13.68710392 31.11922577 8.5625 37.5 C3.75801361 42.54521222 -0.59927055 46.10562995 -7.70703125 46.8359375 C-16.22326573 46.92983204 -22.11345494 46.6177288 -28.40234375 40.62890625 C-34.7841668 33.72505269 -35.91792252 28.29832071 -35.7421875 18.9453125 C-35.04689797 11.08319245 -31.38995981 6.95041296 -25.53515625 1.9453125 C-18.47077988 -2.92213491 -7.84396301 -3.47595223 0 0 Z " fill="#000000" transform="translate(147.4375,81.5)"/>
<path d="M0 0 C0.95390625 -0.0038269 1.9078125 -0.00765381 2.890625 -0.01159668 C4.90105245 -0.01431036 6.91151553 -0.00698737 8.921875 0.00976562 C11.99038787 0.03118291 15.05655952 0.00994534 18.125 -0.015625 C20.08333848 -0.01298163 22.0416755 -0.00785645 24 0 C25.36898437 -0.01214539 25.36898437 -0.01214539 26.765625 -0.02453613 C32.34723968 0.05719316 35.57473138 0.80813314 40 4.53125 C43.62833663 8.35055172 44.31000458 11.41404006 44.5 16.53125 C44.31000458 21.64845994 43.62833663 24.71194828 40 28.53125 C34.73573631 32.96023965 30.57725694 33.12085225 24 33.0625 C22.56914062 33.06824036 22.56914062 33.06824036 21.109375 33.07409668 C19.09894755 33.07681036 17.08848447 33.06948737 15.078125 33.05273438 C12.00961213 33.03131709 8.94344048 33.05255466 5.875 33.078125 C3.91666152 33.07548163 1.9583245 33.07035645 0 33.0625 C-1.36898437 33.07464539 -1.36898437 33.07464539 -2.765625 33.08703613 C-8.34723968 33.00530684 -11.57473138 32.25436686 -16 28.53125 C-19.62833663 24.71194828 -20.31000458 21.64845994 -20.5 16.53125 C-20.31000458 11.41404006 -19.62833663 8.35055172 -16 4.53125 C-10.73573631 0.10226035 -6.57725694 -0.05835225 0 0 Z " fill="#000000" transform="translate(164,143.46875)"/>
</svg>
