<?xml version="1.0" encoding="UTF-8" standalone="no"?>
<!-- Created by Domingo Esteban (http://www.domingoesteban.com/) -->

<svg
   xmlns:dc="http://purl.org/dc/elements/1.1/"
   xmlns:cc="http://creativecommons.org/ns#"
   xmlns:rdf="http://www.w3.org/1999/02/22-rdf-syntax-ns#"
   xmlns:svg="http://www.w3.org/2000/svg"
   xmlns="http://www.w3.org/2000/svg"
   version="1.1"
   width="744.09448"
   height="1052.3622"
   id="svg2">
  <defs
     id="defs4" />
  <metadata
     id="metadata7">
    <rdf:RDF>
      <cc:Work
         rdf:about="">
        <dc:format>image/svg+xml</dc:format>
        <dc:type
           rdf:resource="http://purl.org/dc/dcmitype/StillImage" />
        <dc:title></dc:title>
      </cc:Work>
    </rdf:RDF>
  </metadata>
  <g
     id="Head"
     style="display:inline">
    <rect
       width="255"
       height="245"
       x="245"
       y="39.362183"
       id="rect3076"
       style="fill:#1a1a1a" />
  </g>
  <g
     id="Face"
     style="display:inline">
    <path
       d="m 402.85714,219.50504 a 60.714287,55.714287 0 1 1 -0.0316,-1.7975"
       transform="matrix(0.72470588,0,0,0.78974358,62.45083,-59.412512)"
       id="path3079"
       style="fill:#000000" />
    <path
       d="m 531.42857,228.07646 a 46.42857,50 0 1 1 -0.0242,-1.61313"
       transform="matrix(0.86153848,0,0,0.8,20.671891,-69.320987)"
       id="path3081"
       style="fill:#000000" />
    <path
       d="m 367.14287,220.21933 a 38.57143,37.857143 0 1 1 -0.0201,-1.22137"
       transform="matrix(0.8,0,0,0.8,47.203772,-62.463844)"
       id="path3147"
       fill="#00ff00">
    </path>
    <path
       d="m 507.14285,222.36218 a 32.857143,34.285713 0 1 1 -0.0171,-1.10615"
       transform="matrix(0.85217392,0,0,0.81666672,34.915807,-69.027037)"
       id="path3145"
       fill="#ff6600">
    </path>
    <rect
       width="45"
       height="84.99958"
       x="285"
       y="173.16919"
       id="rect3087"
       style="fill:#b3b3b3" />
    <rect
       width="45"
       height="84.99958"
       x="350"
       y="173.1696"
       id="rect3087-7"
       style="fill:#b3b3b3" />
    <rect
       width="45"
       height="84.99958"
       x="415.5"
       y="173.16919"
       id="rect3087-7-9"
       style="fill:#b3b3b3" />
  </g>
  <g
     id="Ears">
    <rect
       width="35"
       height="150"
       x="207.5"
       y="84.362183"
       id="rect3144"
       style="fill:#1a1a1a" />
    <rect
       width="35"
       height="150"
       x="502.5"
       y="84.362183"
       id="rect3144-8"
       style="fill:#1a1a1a" />
  </g>
  <g
     id="layer5">
    <rect
       width="70"
       height="165"
       x="525"
       y="319.36218"
       id="rect3184-2"
       style="fill:#1a1a1a" />
    <rect
       width="300"
       height="190"
       x="222.5"
       y="319.36218"
       id="rect3184-6"
       style="fill:#1a1a1a" />
    <rect
       width="170"
       height="40"
       x="287.5"
       y="511.86218"
       id="rect3184-4"
       style="fill:#1a1a1a" />
    <rect
       width="90"
       height="180"
       x="402.5"
       y="607.36218"
       id="rect3184-64"
       style="fill:#1a1a1a" />
    <rect
       width="240"
       height="50"
       x="252.5"
       y="554.36218"
       id="rect3184-4-1"
       style="fill:#1a1a1a" />
    <rect
       width="90"
       height="30"
       x="325"
       y="286.86218"
       id="rect3184-4-0"
       style="fill:#1a1a1a" />
    <rect
       width="130"
       height="40"
       x="382.5"
       y="984.86218"
       id="rect3290-3"
       style="fill:#1a1a1a" />
    <rect
       width="25"
       height="40"
       x="520"
       y="639.86218"
       id="rect3184-4-0-2-0-0"
       style="fill:#1a1a1a" />
    <rect
       width="25"
       height="40"
       x="575"
       y="639.86218"
       id="rect3184-4-0-2-0-2-6-9"
       style="fill:#1a1a1a" />
    <rect
       width="80"
       height="35"
       x="520"
       y="601.86218"
       id="rect3184-4-0-2-9"
       style="fill:#1a1a1a" />
    <rect
       width="90"
       height="130"
       x="402.5"
       y="852.36218"
       id="rect3184-64-1"
       style="fill:#1a1a1a" />
    <rect
       width="90"
       height="60"
       x="402.5"
       y="789.86218"
       id="rect3184-64-1-7"
       style="fill:#1a1a1a" />
    <rect
       width="70"
       height="25"
       x="525"
       y="486.86218"
       id="rect3184-2-1"
       style="fill:#1a1a1a" />
    <rect
       width="70"
       height="85"
       x="525"
       y="514.36218"
       id="rect3184-2-5"
       style="fill:#1a1a1a" />
    <rect
       width="70"
       height="165"
       x="150"
       y="319.36218"
       id="rect3184-2-8"
       style="fill:#1a1a1a" />
    <rect
       width="25"
       height="40"
       x="145"
       y="639.86218"
       id="rect3184-4-0-2-0-0-8"
       style="fill:#1a1a1a" />
    <rect
       width="25"
       height="40"
       x="200"
       y="639.86218"
       id="rect3184-4-0-2-0-2-6-9-1"
       style="fill:#1a1a1a" />
    <rect
       width="80"
       height="35"
       x="145"
       y="601.86218"
       id="rect3184-4-0-2-9-2"
       style="fill:#1a1a1a" />
    <rect
       width="70"
       height="25"
       x="150"
       y="486.86218"
       id="rect3184-2-1-4"
       style="fill:#1a1a1a" />
    <rect
       width="70"
       height="85"
       x="150"
       y="514.36218"
       id="rect3184-2-5-5"
       style="fill:#1a1a1a" />
    <rect
       width="90"
       height="180"
       x="252.5"
       y="607.36218"
       id="rect3184-64-3"
       style="fill:#1a1a1a" />
    <rect
       width="130"
       height="40"
       x="232.5"
       y="984.86218"
       id="rect3290-3-4"
       style="fill:#1a1a1a" />
    <rect
       width="90"
       height="130"
       x="252.5"
       y="852.36218"
       id="rect3184-64-1-5"
       style="fill:#1a1a1a" />
    <rect
       width="90"
       height="60"
       x="252.5"
       y="789.86218"
       id="rect3184-64-1-7-3"
       style="fill:#1a1a1a" />
  </g>
  <g
     id="Chest">
    <rect
       width="64.636345"
       height="28.709078"
       x="240"
       y="372.36218"
       id="rect3677"
       style="fill:#ef2929">
       <animate
        attributeName="fill"
        begin="0.5s"  
        dur="2.3s"
        values ="#ef2929; violet; indigo; blue; green; yellow; orange; #ef2929"
        repeatCount="indefinite"   
        /> 
    </rect>
    <path
       d="m 100,302.36218 a 30,30 0 1 1 -0.01562,-0.96788"
       transform="matrix(1.3333333,0,0,1.3333333,371.66667,-15.787383)"
       id="path3679"
       style="fill:#f9f9f9" />
    <rect
       width="64.636345"
       height="28.709078"
       x="320.36365"
       y="373.65311"
       id="rect3677-5"
       style="fill:#ffff00">
       <animate
        attributeName="fill"
        begin="0.2s"  
        dur="2s"
        values ="#ffff00; violet; indigo; blue; green; yellow; orange; #ffff00"
        repeatCount="indefinite"
        /> 
    </rect>
    <path
       d="m 100,302.36218 a 30,30 0 1 1 -0.01562,-0.96788"
       transform="matrix(1.1666667,0,0,1.1666667,383.33333,34.606292)"
       id="path3679-7"
       style="fill:#000000" />
    <rect
       width="250"
       height="40"
       x="250"
       y="447.36218"
       id="rect3728"
       style="fill:#008080" />
    <path
       d="m 100,302.36218 a 30,30 0 1 1 -0.01562,-0.96788"
       transform="matrix(0.5,0,0,0.5,430,236.18109)"
       id="path3679-7-1-7"
       style="fill:#ff0000">
       <animate
        attributeName="fill"
        begin="0.5s"  
        dur="3s"
        values ="#ff0000; blue; #ff0000"
        repeatCount="indefinite"
        /> 
    </path>
  </g>
</svg>
